<svg width="1443" height="465" viewBox="0 0 1443 465" fill="none" xmlns="http://www.w3.org/2000/svg">
<path d="M354.359 131C319.022 131 277.779 140.277 277.779 140.277C270.325 141.964 265 148.992 265 157.051L265.387 208.027C265.968 296.393 346.517 332.845 346.517 332.845C348.937 334.25 351.648 335 354.359 335C357.069 335 359.78 334.25 362.2 332.751C362.2 332.751 384.08 322.537 404.895 300.047C395.795 303.889 385.629 305.951 375.077 305.951C333.447 305.951 299.756 273.341 299.756 233.047C299.756 192.753 333.447 160.143 375.077 160.143C403.927 160.143 428.905 175.792 441.587 198.844L441.781 155.926C441.684 147.774 435.875 140.839 428.324 139.34C428.324 139.34 391.341 131 354.359 131Z" fill="#2CBC6F"/>
<path d="M401.507 245.604C397.053 254.693 387.469 260.972 376.432 260.972C371.398 260.972 366.654 259.66 362.588 257.411L403.83 229.486L427.84 213.462C419.514 193.971 399.667 180.29 376.529 180.29C345.839 180.29 320.958 204.373 320.958 234.078C320.958 263.783 345.839 287.866 376.529 287.866C403.152 287.866 425.419 269.78 430.841 245.604H401.507ZM376.432 207.184C381.466 207.184 386.21 208.496 390.276 210.745L349.131 238.763C348.84 237.264 348.743 235.671 348.743 234.172C348.647 219.272 361.135 207.184 376.432 207.184Z" fill="#2CBC6F"/>
<path d="M914.229 245.604C909.775 254.693 900.191 260.972 889.154 260.972C884.12 260.972 879.376 259.66 875.31 257.411L916.552 229.486L940.562 213.462C932.236 193.971 912.389 180.29 889.251 180.29C858.561 180.29 833.68 204.373 833.68 234.078C833.68 263.783 858.561 287.866 889.251 287.866C915.874 287.866 938.142 269.78 943.563 245.604H914.229ZM889.154 207.184C894.188 207.184 898.932 208.496 902.998 210.745L861.853 238.763C861.562 237.264 861.465 235.671 861.465 234.172C861.369 219.272 873.858 207.184 889.154 207.184Z" fill="#2CBC6F"/>
<path d="M557.279 211.402C557.279 193.41 576.545 180.104 592.422 180.104C606.169 180.104 616.722 185.632 624.37 196.315L602.781 211.495C600.07 209.059 597.069 207.185 593.003 207.185C588.937 207.185 586.613 209.434 586.613 212.526C586.613 215.993 589.13 218.055 598.037 219.086C617.69 221.522 632.696 231.361 632.696 252.633C632.696 273.717 614.689 288.054 591.647 288.054C575.77 288.054 564.152 282.713 554.858 272.499L580.223 254.694C583.418 257.974 587.194 259.192 591.841 259.192C597.359 259.192 599.876 256.1 599.876 252.258C599.876 248.135 597.166 245.324 590.389 244.293C571.026 241.482 557.279 228.925 557.279 211.402Z" fill="#2CBC6F"/>
<path d="M826.807 210.37C830.485 201.28 836.197 193.221 843.458 186.756C839.683 183.851 834.745 181.414 828.065 180.384C825.354 180.009 823.224 180.009 820.707 180.009C812.478 180.009 803.571 182.633 796.988 189.473V180.009H766.976V287.959H796.988V234.078C796.988 217.492 806.96 209.058 818.577 209.058C820.998 209.058 823.225 209.245 825.451 209.714C825.838 209.995 826.323 210.182 826.807 210.37Z" fill="#2CBC6F"/>
<path d="M495.996 180.104C495.899 180.104 495.899 180.104 495.802 180.104C466.662 180.197 441.781 202.593 441.781 232.486V288.054H471.599V232.486C471.599 216.087 483.798 210.09 495.899 209.996C508.001 210.183 517.682 218.523 517.682 234.922V288.054H547.501V234.922C547.597 205.123 525.137 180.197 495.996 180.104Z" fill="#2CBC6F"/>
<path d="M1079.88 180.104C1079.78 180.104 1079.78 180.104 1079.68 180.104C1065.26 180.197 1052.38 186.288 1043.18 196.127C1033.99 186.288 1021.11 180.197 1006.69 180.104H1006.59H1006.49C977.351 180.197 954.891 205.03 954.891 234.922V288.054H984.709V234.922C984.709 218.523 994.487 210.183 1006.49 209.996C1017.72 210.183 1026.82 217.399 1028.18 231.455C1028.08 232.579 1028.08 233.798 1028.08 234.922V288.054H1058.19V234.922C1058.19 233.798 1058.19 232.579 1058.09 231.455C1059.35 217.305 1068.55 210.09 1079.78 209.996C1091.88 210.183 1101.56 218.523 1101.56 234.922V288.054H1131.48V234.922C1131.48 205.03 1109.02 180.197 1079.88 180.104Z" fill="#2CBC6F"/>
<path d="M697.851 287.959C697.948 287.959 698.045 287.959 698.045 287.959C728.541 287.865 751.97 263.033 751.97 233.141V180.009H720.796V233.141C720.796 249.539 710.631 257.879 697.948 258.067C685.265 257.879 675.1 249.539 675.1 233.141V180.009H643.926V233.141C643.926 262.939 667.355 287.865 697.851 287.959Z" fill="#2CBC6F"/>
<path d="M1139.82 192.472V174.105H1133.43V169.795H1151.54V174.105H1145.15V192.378H1139.82V192.472Z" fill="#2CBC6F"/>
<path d="M1155.22 192.472V169.795H1161.03L1164.8 179.822C1165 180.478 1165.29 181.227 1165.48 181.883C1165.67 182.633 1165.96 183.289 1166.16 183.945H1166.25C1166.45 183.289 1166.74 182.539 1166.93 181.883C1167.13 181.133 1167.32 180.478 1167.61 179.822L1171.29 169.795H1177V192.378H1172.16V184.132C1172.16 183.57 1172.16 183.008 1172.26 182.258C1172.26 181.602 1172.35 180.946 1172.45 180.196C1172.55 179.54 1172.55 178.884 1172.64 178.229C1172.74 177.573 1172.74 176.917 1172.84 176.448H1172.74L1170.8 181.789L1167.51 190.41H1164.61L1161.32 181.789L1159.48 176.448H1159.38C1159.48 177.01 1159.48 177.573 1159.57 178.229C1159.67 178.884 1159.67 179.54 1159.77 180.196C1159.86 180.852 1159.86 181.602 1159.96 182.258C1159.96 182.914 1160.06 183.57 1160.06 184.132V192.378H1155.22V192.472Z" fill="#2CBC6F"/>
</svg>
