<?xml version="1.0" encoding="utf-8"?>
<!-- Generator: Adobe Illustrator 26.0.3, SVG Export Plug-In . SVG Version: 6.00 Build 0)  -->
<svg version="1.1" id="Layer_1" xmlns="http://www.w3.org/2000/svg" xmlns:xlink="http://www.w3.org/1999/xlink" x="0px" y="0px"
	 viewBox="0 0 941.8 217.7" style="enable-background:new 0 0 941.8 217.7;" xml:space="preserve">
<style type="text/css">
	.st0{fill:#2CBC6F;}
	.st1{display:none;}
	.st2{display:inline;}
</style>
<g>
	<g id="Logo_2_">
		<g>
			<path class="st0" d="M92.3,0C55.8,0,13.2,9.9,13.2,9.9l0,0C5.5,11.7,0,19.2,0,27.8l0.4,54.4C1,176.5,84.2,215.4,84.2,215.4
				c2.5,1.5,5.3,2.3,8.1,2.3c2.8,0,5.6-0.8,8.1-2.4h0c0,0,22.6-10.9,44.1-34.9c-9.4,4.1-19.9,6.3-30.8,6.3
				c-43,0-77.8-34.8-77.8-77.8c0-43,34.8-77.8,77.8-77.8c29.8,0,55.6,16.7,68.7,41.3l0.2-45.8c-0.1-8.7-6.1-16.1-13.9-17.7
				C168.7,8.9,130.5,0,92.3,0"/>
		</g>
		<g>
			<path class="st0" d="M141,122.3c-4.6,9.7-14.5,16.4-25.9,16.4c-5.2,0-10.1-1.4-14.3-3.8l42.6-29.8c0,0,0,0,0,0L168.2,88
				c-8.6-20.8-29.1-35.4-53-35.4c-31.7,0-57.4,25.7-57.4,57.4c0,31.7,25.7,57.4,57.4,57.4c27.5,0,50.5-19.3,56.1-45.1L141,122.3z
				 M115.1,81.3c5.2,0,10.1,1.4,14.3,3.8L86.9,115c-0.3-1.6-0.4-3.3-0.4-4.9C86.4,94.2,99.3,81.3,115.1,81.3z"/>
		</g>
		<g>
			<path class="st0" d="M670.6,122.3c-4.6,9.7-14.5,16.4-25.9,16.4c-5.2,0-10.1-1.4-14.3-3.8l42.6-29.8c0,0,0,0,0,0L697.8,88
				c-8.6-20.8-29.1-35.4-53-35.4c-31.7,0-57.4,25.7-57.4,57.4c0,31.7,25.7,57.4,57.4,57.4c27.5,0,50.5-19.3,56.1-45.1L670.6,122.3z
				 M644.7,81.3c5.2,0,10.1,1.4,14.3,3.8L616.5,115c-0.3-1.6-0.4-3.3-0.4-4.9C616,94.2,628.9,81.3,644.7,81.3z"/>
		</g>
		<g>
			<path class="st0" d="M301.9,85.8c0-19.2,19.9-33.4,36.3-33.4c14.2,0,25.1,5.9,33,17.3l-22.3,16.2c-2.8-2.6-5.9-4.6-10.1-4.6
				c-4.2,0-6.6,2.4-6.6,5.7c0,3.7,2.6,5.9,11.8,7c20.3,2.6,35.8,13.1,35.8,35.8c0,22.5-18.6,37.8-42.4,37.8
				c-16.4,0-28.4-5.7-38-16.6l26.2-19c3.3,3.5,7.2,4.8,12,4.8c5.7,0,8.3-3.3,8.3-7.4c0-4.4-2.8-7.4-9.8-8.5
				C316.1,117.9,301.9,104.5,301.9,85.8z"/>
		</g>
		<g>
			<path class="st0" d="M580.3,84.7c3.8-9.7,9.7-18.3,17.2-25.2c-3.9-3.1-9-5.7-15.9-6.8c-2.8-0.4-5-0.4-7.6-0.4
				c-8.5,0-17.7,2.8-24.5,10.1V52.3h-31v115.2h31V110c0-17.7,10.3-26.7,22.3-26.7c2.5,0,4.8,0.2,7.1,0.7
				C579.3,84.3,579.8,84.5,580.3,84.7z"/>
		</g>
		<g>
			<path class="st0" d="M238.6,52.4L238.6,52.4C238.6,52.4,238.6,52.4,238.6,52.4c-0.1,0-0.1,0-0.2,0v0c-30.1,0.1-55.8,24-55.8,55.9
				v59.3h30.8v-59.3c0-17.5,12.6-23.9,25.1-24c12.5,0.2,22.5,9.1,22.5,26.6v56.7h30.8v-56.7C291.9,79.1,268.7,52.5,238.6,52.4z"/>
		</g>
		<g>
			<path class="st0" d="M841.7,52.4L841.7,52.4C841.7,52.4,841.6,52.4,841.7,52.4c-0.1,0-0.1,0-0.2,0v0
				c-14.9,0.1-28.2,6.6-37.7,17.1C794.3,59,781,52.5,766.1,52.4v0c0,0-0.1,0-0.1,0s-0.1,0-0.1,0v0c-30.1,0.1-53.3,26.6-53.3,58.5
				v56.7h30.8v-56.7c0-17.5,10.1-26.4,22.5-26.6c11.6,0.2,21,7.9,22.4,22.9c-0.1,1.2-0.1,2.5-0.1,3.7v56.7h31.1v-56.7
				c0-1.2,0-2.5-0.1-3.7c1.3-15.1,10.8-22.8,22.4-22.9c12.5,0.2,22.5,9.1,22.5,26.6v56.7H895v-56.7C895,79,871.8,52.5,841.7,52.4z"
				/>
		</g>
		<g>
			<path class="st0" d="M447.1,167.5L447.1,167.5C447.1,167.5,447.2,167.5,447.1,167.5c0.1,0,0.2,0,0.2,0v0
				c31.5-0.1,55.7-26.6,55.7-58.5V52.3h-32.2V109c0,17.5-10.5,26.4-23.6,26.6c-13.1-0.2-23.6-9.1-23.6-26.6V52.3h-32.2V109
				C391.4,140.8,415.6,167.4,447.1,167.5z"/>
		</g>
		<g class="st1">
			<g class="st2">
				<path class="st0" d="M917.9,31.2c2.1,0,4.1,0.2,6.1,0.8c2,0.5,3.8,1.4,5.4,2.3c1.7,1,3.2,2.2,4.7,3.5c1.4,1.4,2.6,2.9,3.5,4.7
					c1,1.7,1.7,3.5,2.3,5.4c0.5,2,0.8,4,0.8,6.1s-0.2,4.1-0.8,6.1c-0.5,2-1.4,3.8-2.3,5.4c-1,1.7-2.2,3.2-3.5,4.7
					c-1.4,1.4-2.9,2.6-4.7,3.5c-1.7,1-3.5,1.7-5.4,2.3c-2,0.5-4,0.8-6.1,0.8s-4.1-0.2-6.1-0.8c-1.9-0.5-3.8-1.4-5.4-2.3
					c-1.7-1-3.2-2.2-4.7-3.5c-1.4-1.4-2.6-2.9-3.5-4.7c-1-1.7-1.7-3.4-2.3-5.4c-0.5-1.9-0.8-4-0.8-6.1s0.2-4.1,0.8-6.1
					c0.5-2,1.4-3.8,2.3-5.4c1-1.7,2.2-3.2,3.5-4.7c1.4-1.4,2.9-2.6,4.7-3.5c1.7-1,3.4-1.7,5.4-2.3C913.7,31.5,915.9,31.2,917.9,31.2
					z M917.9,73c1.7,0,3.4-0.2,5-0.7c1.6-0.5,3.1-1.1,4.5-1.9c1.4-0.8,2.6-1.7,3.8-3c1.1-1.1,2.1-2.4,2.9-3.8c0.8-1.4,1.4-3,1.9-4.5
					c0.5-1.7,0.7-3.3,0.7-5c0-1.7-0.2-3.5-0.7-5.2c-0.5-1.7-1.1-3.2-1.9-4.7c-0.8-1.4-1.7-2.8-2.9-3.8c-1.1-1.1-2.4-2.2-3.8-3
					c-1.4-0.9-2.9-1.4-4.5-1.9c-1.7-0.5-3.3-0.7-5-0.7c-1.7,0-3.4,0.2-5,0.7s-3.1,1.1-4.4,1.9c-1.4,0.9-2.6,1.9-3.8,3
					c-1.1,1.2-2.1,2.4-2.9,3.8c-0.8,1.4-1.4,3-1.9,4.7c-0.5,1.7-0.7,3.3-0.7,5.2c0,2.6,0.5,5.2,1.4,7.5c1,2.3,2.2,4.3,4,6.1
					c1.7,1.7,3.6,3.1,5.9,4.1C912.8,72.5,915.2,73,917.9,73z M917.8,40.1c3.8,0,6.6,0.7,8.4,2.1c1.7,1.4,2.6,3.3,2.6,6
					c0,1.9-0.5,3.4-1.4,4.7c-1,1.4-2.4,2.3-4.4,3c0.5,0.3,0.9,0.7,1.1,1c0.3,0.5,0.7,0.9,0.9,1.4l5.7,9.4h-6.3c-0.9,0-1.6-0.3-2-1
					l-4.4-8.1c-0.2-0.3-0.5-0.5-0.7-0.7c-0.2-0.1-0.7-0.2-1.1-0.2h-1.7v9.9h-6.6V40.2L917.8,40.1L917.8,40.1z M917.1,53
					c1.1,0,2-0.1,2.6-0.2c0.7-0.2,1.2-0.5,1.6-0.8c0.4-0.3,0.7-0.8,0.8-1.4s0.2-1.1,0.2-1.7c0-0.7-0.1-1.2-0.2-1.7
					c-0.1-0.5-0.3-0.9-0.7-1.2c-0.3-0.3-0.8-0.5-1.4-0.7c-0.5-0.1-1.4-0.2-2.3-0.2h-3.3v7.9L917.1,53L917.1,53L917.1,53z"/>
			</g>
		</g>
	</g>
	<g>
		<path class="st0" d="M903.4,65.6V46h-6.6v-4.6h18.7V46h-6.6v19.5H903.4z"/>
		<path class="st0" d="M919.3,65.6V41.4h6l3.9,10.7c0.2,0.7,0.5,1.5,0.7,2.2c0.2,0.8,0.5,1.5,0.7,2.2h0.1c0.2-0.7,0.5-1.5,0.7-2.2
			c0.2-0.8,0.4-1.5,0.7-2.2l3.8-10.7h5.9v24.1h-5v-8.8c0-0.6,0-1.2,0.1-2c0-0.7,0.1-1.4,0.2-2.2c0.1-0.7,0.1-1.4,0.2-2.1
			c0.1-0.7,0.1-1.4,0.2-1.9h-0.1l-2,5.7l-3.4,9.2h-3l-3.4-9.2l-1.9-5.7h-0.1c0.1,0.6,0.1,1.2,0.2,1.9c0.1,0.7,0.1,1.4,0.2,2.1
			c0.1,0.7,0.1,1.5,0.2,2.2c0,0.7,0.1,1.4,0.1,2v8.8H919.3z"/>
	</g>
</g>
</svg>
