<svg width="285" height="109" viewBox="0 0 285 109" fill="none" xmlns="http://www.w3.org/2000/svg">
<g clip-path="url(#clip0_518_100)">
<path d="M83.46 71.5198L93.04 61.1298V38.2998H83.46V71.5198Z" fill="#A2D45E"/>
<path d="M147.87 38C142.31 38 138.127 39.3333 135.32 42C132.513 44.6667 131.11 49 131.11 55C131.11 60.8133 132.52 65.0667 135.34 67.76C138.16 70.4533 142.337 71.8033 147.87 71.81C153.41 71.81 157.59 70.4533 160.41 67.74C163.23 65.0267 164.637 60.78 164.63 55C164.63 49.06 163.23 44.7267 160.43 42C157.63 39.2733 153.443 37.94 147.87 38ZM153.2 61.61C152.09 62.98 150.32 63.67 147.87 63.67C145.42 63.67 143.65 62.98 142.55 61.61C141.45 60.24 140.89 58 140.89 55C140.89 51.8067 141.437 49.5333 142.53 48.18C143.623 46.8267 145.403 46.16 147.87 46.18C150.35 46.18 152.14 46.86 153.22 48.18C154.3 49.5 154.85 51.81 154.85 55C154.85 58 154.3 60.23 153.2 61.61Z" fill="#2A323A"/>
<path d="M184.68 38.2998H170V71.5198H184.67C189.897 71.5198 193.863 70.1865 196.57 67.5198C199.277 64.8531 200.61 60.7198 200.57 55.1198C200.57 49.2398 199.237 44.9665 196.57 42.2998C193.903 39.6331 189.94 38.2998 184.68 38.2998ZM190 60.6598C189.558 61.8217 188.699 62.7771 187.59 63.3398C186.284 63.8879 184.875 64.1439 183.46 64.0898H179.59V45.7298H183.46C184.921 45.6658 186.377 45.9467 187.71 46.5498C188.84 47.1658 189.689 48.1938 190.08 49.4198C190.658 51.2622 190.915 53.1903 190.84 55.1198C190.93 57.0039 190.645 58.8871 190 60.6598Z" fill="#2A323A"/>
<path d="M225.26 38.2998H215L202.25 71.5198H212.36L215.1 68.1898H225.1L227.89 71.5198H238L225.26 38.2998ZM216.05 58.3598L220.05 47.7398L224.1 58.3698L216.05 58.3598Z" fill="#2A323A"/>
<path d="M130.19 38.2998H119.15L109.09 50.9898V38.2998H99.3901V71.5198H105.95L113.47 60.9598L120.7 71.5198H131.01L118.48 53.7198L130.19 38.2998Z" fill="#2A323A"/>
<path d="M77.8 38.2998H66.76L56.7 50.9898V38.2998H47V71.5198H53.55L61.08 60.9598L68.3 71.5198H78.62L66.09 53.7198L77.8 38.2998Z" fill="#A2D45E"/>
</g>
<defs>
<clipPath id="clip0_518_100">
<rect width="191" height="33.82" fill="white" transform="translate(47 38)"/>
</clipPath>
</defs>
</svg>
