<?xml version="1.0" encoding="utf-8"?><svg xmlns="http://www.w3.org/2000/svg" viewBox="0 0 191 33.82"><defs><style>.cls-1{fill:#a2d45e;}.cls-2{fill:#2a323a;}</style></defs><title>Logo White bg</title><g id="Layer_2" data-name="Layer 2"><g id="Layer_1-2" data-name="Layer 1"><polygon class="cls-1" points="36.46 33.52 46.04 23.13 46.04 0.3 36.46 0.3 36.46 33.52"/><path class="cls-2" d="M100.87,0Q92.53,0,88.32,4T84.11,17q0,8.72,4.23,12.76t12.53,4.05q8.31,0,12.54-4.07T117.63,17q0-8.91-4.2-13T100.87,0Zm5.33,23.61c-1.11,1.37-2.88,2.06-5.33,2.06s-4.22-.69-5.32-2.06S93.89,20,93.89,17q0-4.79,1.64-6.82t5.34-2c2.48,0,4.27.68,5.35,2s1.63,3.63,1.63,6.82C107.85,20,107.3,22.23,106.2,23.61Z"/><path class="cls-2" d="M137.68.3H123V33.52h14.67q7.84,0,11.9-4t4-12.4q0-8.82-4-12.82T137.68.3ZM143,22.66a5,5,0,0,1-2.41,2.68,9.71,9.71,0,0,1-4.13.75h-3.87V7.73h3.87a9.32,9.32,0,0,1,4.25.82,5,5,0,0,1,2.37,2.87,16.84,16.84,0,0,1,.76,5.7A14.22,14.22,0,0,1,143,22.66Z"/><path class="cls-2" d="M178.26.3H168L155.25,33.52h10.11l2.74-3.33h10l2.79,3.33H191Zm-9.21,20.06,4-10.62,4.05,10.63Z"/><polygon class="cls-2" points="83.19 0.3 72.15 0.3 62.09 12.99 62.09 0.3 52.39 0.3 52.39 33.52 58.95 33.52 66.47 22.96 73.7 33.52 84.01 33.52 71.48 15.72 83.19 0.3"/><polygon class="cls-1" points="30.8 0.3 19.76 0.3 9.7 12.99 9.7 0.3 0 0.3 0 33.52 6.55 33.52 14.08 22.96 21.3 33.52 31.62 33.52 19.09 15.72 30.8 0.3"/></g></g></svg>