<svg width="192" height="72" viewBox="0 0 192 72" fill="none" xmlns="http://www.w3.org/2000/svg">
<g clip-path="url(#clip0_503_5)">
<path d="M25.7244 15.4712C25.9536 15.1701 26.2964 14.9968 26.6623 14.9968C27.0283 14.9968 27.3694 15.1701 27.6003 15.473L36.0489 26.5527L42.3446 18.6712C42.6306 18.3173 42.9894 18.2534 43.1084 18.2315L43.1919 18.2169H43.2772C43.636 18.2206 43.9735 18.3921 44.2009 18.6894L62.8444 42.8484C63.3028 40.6335 63.5515 38.3329 63.5515 35.9703C63.5515 18.3446 50.175 4.05762 33.6756 4.05762C17.1763 4.05762 3.7998 18.3464 3.7998 35.9703C3.7998 38.4387 4.07159 40.836 4.56899 43.1421L25.7244 15.4712Z" fill="url(#paint0_linear_503_5)"/>
<path d="M33.6738 0C15.1049 0 0 16.137 0 35.9702C0 55.8034 15.1067 71.9404 33.6738 71.9404C52.2409 71.9404 67.3476 55.8034 67.3476 35.9702C67.3476 16.137 52.2409 0 33.6738 0ZM63.2369 48.2759C62.5583 50.1313 61.7252 51.9047 60.7659 53.5868C60.7517 53.6123 60.7375 53.6379 60.7233 53.6616C60.4959 54.0575 60.2632 54.4479 60.0198 54.8328C59.8085 55.1722 59.5864 55.5042 59.3643 55.8363C59.3288 55.8892 59.2933 55.9439 59.2578 55.9968C53.4862 64.4548 44.1458 69.9554 33.5974 69.9554C16.0677 69.9554 1.85813 54.7763 1.85813 36.0523C1.85813 24.9124 6.88895 15.0295 14.6537 8.85024C19.9581 4.59388 26.545 2.06889 33.6738 2.06889C51.1733 2.06889 65.4113 17.2772 65.4113 35.9702C65.4113 39.4512 64.9157 42.8099 64.0008 45.9735L63.9653 45.9279C63.7414 46.7142 63.4892 47.4841 63.2138 48.2449L63.2369 48.2759Z" fill="white"/>
<path d="M89.1382 31.6489C88.8496 31.6489 88.6252 31.5687 88.4649 31.4084C88.3046 31.232 88.2244 30.9916 88.2244 30.6869V15.3204C88.2244 14.9997 88.3046 14.7592 88.4649 14.5989C88.6252 14.4386 88.8496 14.3584 89.1382 14.3584C89.3947 14.3584 89.5951 14.4146 89.7394 14.5268C89.8997 14.623 90.044 14.7913 90.1723 15.0318L96.7614 27.4405H96.04L102.605 15.0318C102.733 14.7913 102.869 14.623 103.014 14.5268C103.158 14.4146 103.366 14.3584 103.639 14.3584C103.912 14.3584 104.128 14.4386 104.288 14.5989C104.449 14.7592 104.529 14.9997 104.529 15.3204V30.6869C104.529 30.9916 104.449 31.232 104.288 31.4084C104.144 31.5687 103.92 31.6489 103.615 31.6489C103.326 31.6489 103.102 31.5687 102.942 31.4084C102.781 31.232 102.701 30.9916 102.701 30.6869V17.172H103.278L97.2664 28.4505C97.1542 28.6589 97.0339 28.8112 96.9057 28.9074C96.7935 28.9876 96.6251 29.0276 96.4007 29.0276C96.1762 29.0276 95.9999 28.9795 95.8716 28.8834C95.7434 28.7872 95.6311 28.6429 95.535 28.4505L89.4508 17.148H90.028V30.6869C90.028 30.9916 89.9478 31.232 89.7875 31.4084C89.6432 31.5687 89.4268 31.6489 89.1382 31.6489ZM113.75 31.697C112.516 31.697 111.45 31.4565 110.552 30.9755C109.67 30.4785 108.981 29.7811 108.484 28.8834C108.003 27.9856 107.762 26.9114 107.762 25.6609C107.762 24.4425 108.003 23.3844 108.484 22.4866C108.965 21.5728 109.622 20.8594 110.456 20.3464C111.305 19.8333 112.283 19.5768 113.39 19.5768C114.175 19.5768 114.881 19.7131 115.506 19.9856C116.131 20.2422 116.66 20.6189 117.093 21.1159C117.542 21.6129 117.879 22.2141 118.103 22.9195C118.343 23.6249 118.464 24.4185 118.464 25.3002C118.464 25.5567 118.392 25.7491 118.247 25.8774C118.103 25.9896 117.895 26.0457 117.622 26.0457H109.253V24.7712H117.165L116.78 25.0838C116.78 24.2181 116.652 23.4886 116.396 22.8954C116.139 22.2862 115.762 21.8213 115.265 21.5007C114.784 21.18 114.175 21.0197 113.438 21.0197C112.62 21.0197 111.923 21.2121 111.346 21.5969C110.784 21.9656 110.36 22.4866 110.071 23.16C109.782 23.8173 109.638 24.5868 109.638 25.4686V25.6128C109.638 27.0878 109.991 28.21 110.696 28.9795C111.418 29.7491 112.436 30.1338 113.75 30.1338C114.295 30.1338 114.833 30.0617 115.362 29.9174C115.907 29.7731 116.436 29.5326 116.949 29.196C117.173 29.0517 117.374 28.9876 117.55 29.0036C117.742 29.0036 117.895 29.0597 118.007 29.1719C118.119 29.2681 118.191 29.3964 118.223 29.5567C118.271 29.701 118.255 29.8613 118.175 30.0377C118.111 30.214 117.975 30.3663 117.766 30.4946C117.237 30.8793 116.612 31.1759 115.891 31.3843C115.169 31.5927 114.456 31.697 113.75 31.697ZM125.972 31.697C125.058 31.697 124.289 31.5366 123.664 31.216C123.054 30.8793 122.597 30.3984 122.293 29.7731C121.988 29.1319 121.836 28.3543 121.836 27.4405V21.3083H120.225C119.952 21.3083 119.744 21.2442 119.599 21.1159C119.455 20.9716 119.383 20.7792 119.383 20.5387C119.383 20.2983 119.455 20.1139 119.599 19.9856C119.744 19.8574 119.952 19.7933 120.225 19.7933H121.836V17.0278C121.836 16.7071 121.924 16.4666 122.1 16.3063C122.277 16.13 122.517 16.0418 122.822 16.0418C123.126 16.0418 123.359 16.13 123.519 16.3063C123.696 16.4666 123.784 16.7071 123.784 17.0278V19.7933H126.814C127.086 19.7933 127.295 19.8574 127.439 19.9856C127.583 20.1139 127.655 20.2983 127.655 20.5387C127.655 20.7792 127.583 20.9716 127.439 21.1159C127.295 21.2442 127.086 21.3083 126.814 21.3083H123.784V27.2481C123.784 28.1619 123.976 28.8593 124.361 29.3403C124.746 29.8052 125.371 30.0377 126.237 30.0377C126.541 30.0377 126.798 30.0056 127.006 29.9415C127.231 29.8773 127.415 29.8453 127.559 29.8453C127.704 29.8292 127.824 29.8773 127.92 29.9896C128.016 30.1018 128.064 30.2942 128.064 30.5667C128.064 30.7591 128.024 30.9354 127.944 31.0958C127.88 31.2561 127.76 31.3683 127.583 31.4324C127.391 31.4966 127.134 31.5527 126.814 31.6008C126.509 31.6649 126.229 31.697 125.972 31.697ZM133.369 31.697C132.568 31.697 131.846 31.5447 131.205 31.24C130.58 30.9194 130.083 30.4865 129.714 29.9415C129.345 29.3964 129.161 28.7872 129.161 28.1138C129.161 27.2481 129.378 26.5667 129.81 26.0698C130.259 25.5728 130.989 25.2201 131.999 25.0116C133.025 24.8032 134.42 24.699 136.183 24.699H137.265V25.9736H136.207C134.909 25.9736 133.882 26.0377 133.129 26.1659C132.392 26.2782 131.87 26.4786 131.566 26.7671C131.277 27.0557 131.133 27.4645 131.133 27.9936C131.133 28.6509 131.357 29.188 131.806 29.6048C132.271 30.0216 132.897 30.23 133.682 30.23C134.323 30.23 134.884 30.0777 135.365 29.7731C135.862 29.4685 136.247 29.0517 136.52 28.5226C136.808 27.9936 136.953 27.3844 136.953 26.695V23.9535C136.953 22.9596 136.752 22.2461 136.351 21.8133C135.951 21.3644 135.293 21.1399 134.379 21.1399C133.818 21.1399 133.257 21.2121 132.696 21.3564C132.135 21.5007 131.542 21.7331 130.917 22.0538C130.692 22.166 130.5 22.2061 130.339 22.174C130.179 22.1259 130.051 22.0377 129.955 21.9095C129.858 21.7812 129.802 21.6369 129.786 21.4766C129.77 21.3003 129.802 21.1319 129.883 20.9716C129.979 20.8113 130.123 20.683 130.315 20.5868C131.021 20.2341 131.718 19.9776 132.408 19.8173C133.097 19.657 133.754 19.5768 134.379 19.5768C135.389 19.5768 136.223 19.7452 136.88 20.0818C137.538 20.4025 138.027 20.8995 138.347 21.5728C138.668 22.2301 138.828 23.0798 138.828 24.1219V30.6388C138.828 30.9595 138.748 31.208 138.588 31.3843C138.444 31.5607 138.227 31.6489 137.939 31.6489C137.634 31.6489 137.401 31.5607 137.241 31.3843C137.081 31.208 137.001 30.9595 137.001 30.6388V28.7631H137.217C137.089 29.3723 136.84 29.8934 136.472 30.3262C136.119 30.7591 135.678 31.0958 135.149 31.3362C134.62 31.5767 134.027 31.697 133.369 31.697ZM143.765 31.6489C143.428 31.6489 143.164 31.5607 142.971 31.3843C142.795 31.192 142.707 30.9194 142.707 30.5667V15.6089C142.707 15.2562 142.795 14.9917 142.971 14.8154C143.164 14.623 143.436 14.5268 143.789 14.5268H152.518C152.791 14.5268 152.999 14.5989 153.143 14.7432C153.288 14.8875 153.36 15.0879 153.36 15.3444C153.36 15.617 153.288 15.8254 153.143 15.9697C152.999 16.1139 152.791 16.1861 152.518 16.1861H144.679V22.1019H152.013C152.286 22.1019 152.494 22.174 152.638 22.3183C152.799 22.4626 152.879 22.663 152.879 22.9195C152.879 23.192 152.799 23.4004 152.638 23.5447C152.494 23.689 152.286 23.7612 152.013 23.7612H144.679V30.5667C144.679 31.2881 144.374 31.6489 143.765 31.6489ZM157.025 31.6008C156.704 31.6008 156.464 31.5126 156.303 31.3362C156.143 31.1439 156.063 30.8793 156.063 30.5427V20.7071C156.063 20.3704 156.143 20.1139 156.303 19.9376C156.464 19.7612 156.704 19.673 157.025 19.673C157.329 19.673 157.57 19.7612 157.746 19.9376C157.923 20.1139 158.011 20.3704 158.011 20.7071V30.5427C158.011 30.8793 157.923 31.1439 157.746 31.3362C157.586 31.5126 157.345 31.6008 157.025 31.6008ZM157.025 16.9797C156.624 16.9797 156.311 16.8755 156.087 16.667C155.863 16.4426 155.75 16.146 155.75 15.7773C155.75 15.3925 155.863 15.1039 156.087 14.9115C156.311 14.7031 156.624 14.5989 157.025 14.5989C157.442 14.5989 157.754 14.7031 157.963 14.9115C158.187 15.1039 158.299 15.3925 158.299 15.7773C158.299 16.146 158.187 16.4426 157.963 16.667C157.754 16.8755 157.442 16.9797 157.025 16.9797ZM162.638 31.6489C162.318 31.6489 162.069 31.5607 161.893 31.3843C161.732 31.208 161.652 30.9595 161.652 30.6388V20.6109C161.652 20.2903 161.732 20.0498 161.893 19.8895C162.053 19.7131 162.285 19.6249 162.59 19.6249C162.895 19.6249 163.127 19.7131 163.287 19.8895C163.464 20.0498 163.552 20.2903 163.552 20.6109V22.5588H163.311C163.568 21.6129 164.057 20.8834 164.778 20.3704C165.5 19.8574 166.39 19.5848 167.448 19.5528C167.688 19.5368 167.881 19.5929 168.025 19.7211C168.169 19.8333 168.249 20.0337 168.265 20.3223C168.281 20.5949 168.217 20.8113 168.073 20.9716C167.929 21.1319 167.704 21.2281 167.4 21.2602L167.015 21.3083C165.925 21.4045 165.083 21.7572 164.49 22.3664C163.913 22.9596 163.624 23.7772 163.624 24.8193V30.6388C163.624 30.9595 163.536 31.208 163.36 31.3843C163.199 31.5607 162.959 31.6489 162.638 31.6489ZM175.396 31.697C174.162 31.697 173.096 31.4565 172.198 30.9755C171.316 30.4785 170.627 29.7811 170.13 28.8834C169.649 27.9856 169.409 26.9114 169.409 25.6609C169.409 24.4425 169.649 23.3844 170.13 22.4866C170.611 21.5728 171.268 20.8594 172.102 20.3464C172.952 19.8333 173.93 19.5768 175.036 19.5768C175.821 19.5768 176.527 19.7131 177.152 19.9856C177.777 20.2422 178.306 20.6189 178.739 21.1159C179.188 21.6129 179.525 22.2141 179.749 22.9195C179.99 23.6249 180.11 24.4185 180.11 25.3002C180.11 25.5567 180.038 25.7491 179.893 25.8774C179.749 25.9896 179.541 26.0457 179.268 26.0457H170.9V24.7712H178.811L178.427 25.0838C178.427 24.2181 178.298 23.4886 178.042 22.8954C177.785 22.2862 177.408 21.8213 176.912 21.5007C176.431 21.18 175.821 21.0197 175.084 21.0197C174.266 21.0197 173.569 21.2121 172.992 21.5969C172.431 21.9656 172.006 22.4866 171.717 23.16C171.429 23.8173 171.284 24.5868 171.284 25.4686V25.6128C171.284 27.0878 171.637 28.21 172.342 28.9795C173.064 29.7491 174.082 30.1338 175.396 30.1338C175.942 30.1338 176.479 30.0617 177.008 29.9174C177.553 29.7731 178.082 29.5326 178.595 29.196C178.819 29.0517 179.02 28.9876 179.196 29.0036C179.388 29.0036 179.541 29.0597 179.653 29.1719C179.765 29.2681 179.837 29.3964 179.869 29.5567C179.917 29.701 179.901 29.8613 179.821 30.0377C179.757 30.214 179.621 30.3663 179.412 30.4946C178.883 30.8793 178.258 31.1759 177.537 31.3843C176.815 31.5927 176.102 31.697 175.396 31.697Z" fill="#662F90"/>
<path d="M91.2538 54.4512C90.9243 54.4512 90.6655 54.3649 90.4772 54.1923C90.3046 54.004 90.2183 53.7373 90.2183 53.3921V38.7541C90.2183 38.4089 90.3046 38.15 90.4772 37.9775C90.6655 37.7892 90.9322 37.6951 91.2773 37.6951H99.8201C100.087 37.6951 100.291 37.7657 100.432 37.9069C100.573 38.0481 100.644 38.2442 100.644 38.4952C100.644 38.7619 100.573 38.9659 100.432 39.1071C100.291 39.2483 100.087 39.3189 99.8201 39.3189H92.1481V45.1082H99.3259C99.5926 45.1082 99.7966 45.1788 99.9378 45.32C100.095 45.4612 100.173 45.6574 100.173 45.9084C100.173 46.1751 100.095 46.3791 99.9378 46.5203C99.7966 46.6615 99.5926 46.7321 99.3259 46.7321H92.1481V53.3921C92.1481 54.0982 91.85 54.4512 91.2538 54.4512ZM104.23 54.4041C103.917 54.4041 103.681 54.3178 103.524 54.1452C103.368 53.957 103.289 53.6981 103.289 53.3686V43.7433C103.289 43.4138 103.368 43.1628 103.524 42.9902C103.681 42.8176 103.917 42.7313 104.23 42.7313C104.529 42.7313 104.764 42.8176 104.936 42.9902C105.109 43.1628 105.195 43.4138 105.195 43.7433V53.3686C105.195 53.6981 105.109 53.957 104.936 54.1452C104.78 54.3178 104.544 54.4041 104.23 54.4041ZM104.23 40.0955C103.838 40.0955 103.532 39.9935 103.313 39.7896C103.093 39.5699 102.983 39.2797 102.983 38.9188C102.983 38.5423 103.093 38.2599 103.313 38.0716C103.532 37.8676 103.838 37.7657 104.23 37.7657C104.638 37.7657 104.944 37.8676 105.148 38.0716C105.368 38.2599 105.478 38.5423 105.478 38.9188C105.478 39.2797 105.368 39.5699 105.148 39.7896C104.944 39.9935 104.638 40.0955 104.23 40.0955ZM109.7 54.4512C109.386 54.4512 109.151 54.3649 108.994 54.1923C108.837 54.0197 108.759 53.7765 108.759 53.4627V43.6491C108.759 43.3353 108.837 43.1 108.994 42.9431C109.151 42.7705 109.379 42.6842 109.677 42.6842C109.975 42.6842 110.202 42.7705 110.359 42.9431C110.532 43.1 110.618 43.3353 110.618 43.6491V45.673L110.359 45.3906C110.689 44.4807 111.222 43.7982 111.959 43.3432C112.713 42.8725 113.575 42.6372 114.548 42.6372C115.458 42.6372 116.211 42.8019 116.807 43.1314C117.419 43.4609 117.874 43.9629 118.172 44.6375C118.47 45.2965 118.62 46.1359 118.62 47.1557V53.4627C118.62 53.7765 118.533 54.0197 118.361 54.1923C118.204 54.3649 117.976 54.4512 117.678 54.4512C117.364 54.4512 117.121 54.3649 116.949 54.1923C116.792 54.0197 116.713 53.7765 116.713 53.4627V47.2733C116.713 46.2065 116.501 45.4299 116.078 44.9435C115.67 44.4414 115.011 44.1904 114.101 44.1904C113.05 44.1904 112.21 44.5199 111.583 45.1788C110.971 45.8221 110.665 46.685 110.665 47.7676V53.4627C110.665 54.1217 110.343 54.4512 109.7 54.4512ZM125.735 54.4982C124.951 54.4982 124.245 54.3492 123.617 54.0511C123.005 53.7373 122.519 53.3137 122.158 52.7803C121.797 52.2468 121.617 51.6506 121.617 50.9917C121.617 50.1445 121.829 49.4777 122.252 48.9913C122.692 48.5049 123.405 48.1598 124.394 47.9558C125.398 47.7519 126.763 47.6499 128.489 47.6499H129.548V48.8972H128.512C127.241 48.8972 126.237 48.9599 125.5 49.0854C124.778 49.1953 124.268 49.3914 123.97 49.6738C123.688 49.9562 123.547 50.3563 123.547 50.874C123.547 51.5173 123.766 52.0429 124.206 52.4508C124.661 52.8587 125.272 53.0627 126.041 53.0627C126.669 53.0627 127.218 52.9136 127.689 52.6155C128.175 52.3174 128.551 51.9095 128.818 51.3918C129.101 50.874 129.242 50.2778 129.242 49.6032V46.9203C129.242 45.9476 129.046 45.2494 128.653 44.8258C128.261 44.3865 127.618 44.1669 126.724 44.1669C126.175 44.1669 125.625 44.2375 125.076 44.3787C124.527 44.5199 123.947 44.7474 123.335 45.0612C123.115 45.171 122.927 45.2102 122.77 45.1788C122.613 45.1318 122.488 45.0455 122.393 44.92C122.299 44.7944 122.244 44.6532 122.229 44.4963C122.213 44.3238 122.244 44.159 122.323 44.0021C122.417 43.8452 122.558 43.7197 122.746 43.6256C123.437 43.2804 124.119 43.0294 124.794 42.8725C125.469 42.7156 126.112 42.6372 126.724 42.6372C127.712 42.6372 128.528 42.8019 129.171 43.1314C129.814 43.4452 130.293 43.9315 130.607 44.5905C130.921 45.2337 131.077 46.0653 131.077 47.0851V53.4627C131.077 53.7765 130.999 54.0197 130.842 54.1923C130.701 54.3649 130.489 54.4512 130.207 54.4512C129.909 54.4512 129.681 54.3649 129.524 54.1923C129.367 54.0197 129.289 53.7765 129.289 53.4627V51.6271H129.501C129.375 52.2233 129.132 52.7332 128.771 53.1568C128.426 53.5804 127.994 53.9099 127.477 54.1452C126.959 54.3806 126.378 54.4982 125.735 54.4982ZM135.555 54.4512C135.241 54.4512 135.006 54.3649 134.849 54.1923C134.692 54.0197 134.614 53.7765 134.614 53.4627V43.6491C134.614 43.3353 134.692 43.1 134.849 42.9431C135.006 42.7705 135.234 42.6842 135.532 42.6842C135.83 42.6842 136.057 42.7705 136.214 42.9431C136.387 43.1 136.473 43.3353 136.473 43.6491V45.673L136.214 45.3906C136.544 44.4807 137.077 43.7982 137.815 43.3432C138.568 42.8725 139.431 42.6372 140.403 42.6372C141.313 42.6372 142.066 42.8019 142.663 43.1314C143.274 43.4609 143.729 43.9629 144.027 44.6375C144.326 45.2965 144.475 46.1359 144.475 47.1557V53.4627C144.475 53.7765 144.388 54.0197 144.216 54.1923C144.059 54.3649 143.831 54.4512 143.533 54.4512C143.219 54.4512 142.976 54.3649 142.804 54.1923C142.647 54.0197 142.568 53.7765 142.568 53.4627V47.2733C142.568 46.2065 142.357 45.4299 141.933 44.9435C141.525 44.4414 140.866 44.1904 139.956 44.1904C138.905 44.1904 138.066 44.5199 137.438 45.1788C136.826 45.8221 136.52 46.685 136.52 47.7676V53.4627C136.52 54.1217 136.199 54.4512 135.555 54.4512ZM152.838 54.4982C151.692 54.4982 150.704 54.2472 149.872 53.7452C149.041 53.2431 148.398 52.5449 147.943 51.6506C147.503 50.7407 147.284 49.6895 147.284 48.4971C147.284 47.5871 147.409 46.7713 147.66 46.0496C147.911 45.3279 148.28 44.716 148.766 44.2139C149.253 43.6962 149.833 43.304 150.508 43.0372C151.198 42.7705 151.975 42.6372 152.838 42.6372C153.402 42.6372 153.991 42.7235 154.603 42.896C155.215 43.0686 155.771 43.3667 156.274 43.7903C156.43 43.9002 156.532 44.0335 156.579 44.1904C156.627 44.3473 156.627 44.5042 156.579 44.6611C156.532 44.8023 156.454 44.9278 156.344 45.0376C156.234 45.1318 156.093 45.1867 155.921 45.2024C155.764 45.2181 155.599 45.1631 155.426 45.0376C155.018 44.7238 154.603 44.5042 154.179 44.3787C153.755 44.2532 153.347 44.1904 152.955 44.1904C152.343 44.1904 151.81 44.2924 151.355 44.4963C150.9 44.6846 150.516 44.9592 150.202 45.32C149.888 45.6809 149.645 46.128 149.472 46.6615C149.315 47.1949 149.237 47.8146 149.237 48.5206C149.237 49.8856 149.559 50.9682 150.202 51.7683C150.845 52.5528 151.763 52.945 152.955 52.945C153.347 52.945 153.748 52.8822 154.155 52.7567C154.579 52.6312 155.003 52.4116 155.426 52.0978C155.599 51.9723 155.764 51.9174 155.921 51.933C156.077 51.9487 156.211 52.0115 156.321 52.1213C156.43 52.2155 156.501 52.341 156.532 52.4979C156.579 52.6548 156.579 52.8116 156.532 52.9685C156.485 53.1097 156.383 53.2353 156.226 53.3451C155.724 53.753 155.175 54.0511 154.579 54.2394C153.983 54.4119 153.402 54.4982 152.838 54.4982ZM159.825 54.4041C159.511 54.4041 159.275 54.3178 159.119 54.1452C158.962 53.957 158.883 53.6981 158.883 53.3686V43.7433C158.883 43.4138 158.962 43.1628 159.119 42.9902C159.275 42.8176 159.511 42.7313 159.825 42.7313C160.123 42.7313 160.358 42.8176 160.531 42.9902C160.703 43.1628 160.789 43.4138 160.789 43.7433V53.3686C160.789 53.6981 160.703 53.957 160.531 54.1452C160.374 54.3178 160.138 54.4041 159.825 54.4041ZM159.825 40.0955C159.432 40.0955 159.126 39.9935 158.907 39.7896C158.687 39.5699 158.577 39.2797 158.577 38.9188C158.577 38.5423 158.687 38.2599 158.907 38.0716C159.126 37.8676 159.432 37.7657 159.825 37.7657C160.232 37.7657 160.538 37.8676 160.742 38.0716C160.962 38.2599 161.072 38.5423 161.072 38.9188C161.072 39.2797 160.962 39.5699 160.742 39.7896C160.538 39.9935 160.232 40.0955 159.825 40.0955ZM167.954 54.4982C167.169 54.4982 166.463 54.3492 165.836 54.0511C165.224 53.7373 164.737 53.3137 164.377 52.7803C164.016 52.2468 163.835 51.6506 163.835 50.9917C163.835 50.1445 164.047 49.4777 164.471 48.9913C164.91 48.5049 165.624 48.1598 166.612 47.9558C167.616 47.7519 168.981 47.6499 170.707 47.6499H171.766V48.8972H170.731C169.46 48.8972 168.456 48.9599 167.718 49.0854C166.997 49.1953 166.487 49.3914 166.189 49.6738C165.906 49.9562 165.765 50.3563 165.765 50.874C165.765 51.5173 165.985 52.0429 166.424 52.4508C166.879 52.8587 167.491 53.0627 168.26 53.0627C168.887 53.0627 169.436 52.9136 169.907 52.6155C170.393 52.3174 170.77 51.9095 171.037 51.3918C171.319 50.874 171.46 50.2778 171.46 49.6032V46.9203C171.46 45.9476 171.264 45.2494 170.872 44.8258C170.48 44.3865 169.836 44.1669 168.942 44.1669C168.393 44.1669 167.844 44.2375 167.295 44.3787C166.746 44.5199 166.165 44.7474 165.553 45.0612C165.334 45.171 165.145 45.2102 164.988 45.1788C164.832 45.1318 164.706 45.0455 164.612 44.92C164.518 44.7944 164.463 44.6532 164.447 44.4963C164.431 44.3238 164.463 44.159 164.541 44.0021C164.635 43.8452 164.777 43.7197 164.965 43.6256C165.655 43.2804 166.338 43.0294 167.012 42.8725C167.687 42.7156 168.33 42.6372 168.942 42.6372C169.931 42.6372 170.746 42.8019 171.39 43.1314C172.033 43.4452 172.511 43.9315 172.825 44.5905C173.139 45.2337 173.296 46.0653 173.296 47.0851V53.4627C173.296 53.7765 173.217 54.0197 173.061 54.1923C172.919 54.3649 172.708 54.4512 172.425 54.4512C172.127 54.4512 171.9 54.3649 171.743 54.1923C171.586 54.0197 171.507 53.7765 171.507 53.4627V51.6271H171.719C171.594 52.2233 171.35 52.7332 170.99 53.1568C170.644 53.5804 170.213 53.9099 169.695 54.1452C169.177 54.3806 168.597 54.4982 167.954 54.4982ZM180.315 54.4982C179.186 54.4982 178.323 54.1531 177.727 53.4627C177.13 52.7724 176.832 51.784 176.832 50.4975V38.4952C176.832 38.1814 176.911 37.9461 177.068 37.7892C177.225 37.6166 177.46 37.5303 177.774 37.5303C178.072 37.5303 178.307 37.6166 178.48 37.7892C178.652 37.9461 178.739 38.1814 178.739 38.4952V50.3563C178.739 51.2035 178.903 51.8389 179.233 52.2625C179.578 52.6704 180.08 52.8744 180.739 52.8744C180.88 52.8744 181.006 52.8666 181.116 52.8509C181.225 52.8352 181.335 52.8273 181.445 52.8273C181.618 52.8116 181.735 52.8509 181.798 52.945C181.876 53.0391 181.916 53.2274 181.916 53.5098C181.916 53.7922 181.853 54.004 181.727 54.1452C181.602 54.2864 181.398 54.3806 181.116 54.4276C180.99 54.4433 180.857 54.459 180.715 54.4747C180.574 54.4904 180.441 54.4982 180.315 54.4982Z" fill="#662F90"/>
<path d="M81.6843 46.3662H76.5344V47.3056H81.6843V46.3662Z" fill="#662F90"/>
<path d="M187.291 47.3057H191.561C191.805 47.3057 192 47.096 192 46.837C192 46.578 191.803 46.3682 191.561 46.3682H187.291C187.047 46.3682 186.852 46.578 186.852 46.837C186.852 47.096 187.049 47.3057 187.291 47.3057Z" fill="#662F90"/>
<path d="M43.2398 22.3286L37.7133 29.2487L41.1312 37.3217C41.1809 37.4403 41.1418 37.5789 41.0388 37.6483C40.934 37.7158 40.8008 37.6921 40.7244 37.5917L26.6622 19.1523L5.61523 46.7375C9.74896 59.025 20.7503 67.8132 33.6755 67.8132C46.7038 67.8132 57.7726 58.8827 61.8282 46.4438L43.2398 22.3286ZM20.8143 37.2797L7.3579 47.7117L26.4953 23.717V23.6787L26.5095 23.6988L26.5237 23.6787V23.717L36.0666 35.9698L29.5738 33.4138L25.2145 40.3703L20.8143 37.2797ZM40.6622 51.4719L33.0751 55.5421L29.0213 65.9395L29.0373 44.0866C29.0071 43.2255 29.6271 42.4976 30.4318 42.4447L43.6981 42.4793L33.0041 48.6951L40.6622 51.4719ZM44.9522 32.9267L43.3286 29.6409L39.9712 29.9164L43.3126 26.0468L52.2995 36.9422L44.9522 32.9267Z" fill="white"/>
</g>
<defs>
<linearGradient id="paint0_linear_503_5" x1="33.6739" y1="4.05669" x2="33.6739" y2="43.1427" gradientUnits="userSpaceOnUse">
<stop offset="0.2312" stop-color="#1E1E1E"/>
<stop offset="0.5246" stop-color="#42348F"/>
<stop offset="0.6859" stop-color="#2E368F"/>
<stop offset="0.7214" stop-color="#2D4799"/>
<stop offset="0.8146" stop-color="#2D6FB4"/>
<stop offset="0.8917" stop-color="#2C8ECB"/>
<stop offset="0.9489" stop-color="#2AA2DB"/>
<stop offset="0.9799" stop-color="#29AAE2"/>
</linearGradient>
<clipPath id="clip0_503_5">
<rect width="192" height="72" fill="white"/>
</clipPath>
</defs>
</svg>
