<svg width="279" height="95" viewBox="0 0 279 95" fill="none" xmlns="http://www.w3.org/2000/svg">
<g clip-path="url(#clip0_517_61)">
<path d="M68.7244 27.4712C68.9536 27.1701 69.2964 26.9968 69.6623 26.9968C70.0283 26.9968 70.3694 27.1701 70.6003 27.473L79.0489 38.5527L85.3446 30.6712C85.6306 30.3173 85.9894 30.2534 86.1084 30.2315L86.1919 30.2169H86.2772C86.636 30.2206 86.9735 30.3921 87.2009 30.6894L105.844 54.8484C106.303 52.6335 106.551 50.3329 106.551 47.9703C106.551 30.3446 93.175 16.0576 76.6756 16.0576C60.1763 16.0576 46.7998 30.3464 46.7998 47.9703C46.7998 50.4387 47.0716 52.836 47.569 55.1421L68.7244 27.4712Z" fill="url(#paint0_linear_517_61)"/>
<path d="M76.6738 12C58.1049 12 43 28.137 43 47.9702C43 67.8034 58.1067 83.9404 76.6738 83.9404C95.2409 83.9404 110.348 67.8034 110.348 47.9702C110.348 28.137 95.2409 12 76.6738 12ZM106.237 60.2759C105.558 62.1313 104.725 63.9047 103.766 65.5868C103.752 65.6123 103.738 65.6379 103.723 65.6616C103.496 66.0575 103.263 66.4479 103.02 66.8328C102.808 67.1722 102.586 67.5042 102.364 67.8363C102.329 67.8892 102.293 67.9439 102.258 67.9968C96.4862 76.4548 87.1458 81.9554 76.5974 81.9554C59.0677 81.9554 44.8581 66.7763 44.8581 48.0523C44.8581 36.9124 49.8889 27.0295 57.6537 20.8502C62.9581 16.5939 69.545 14.0689 76.6738 14.0689C94.1733 14.0689 108.411 29.2772 108.411 47.9702C108.411 51.4512 107.916 54.8099 107.001 57.9735L106.965 57.9279C106.741 58.7142 106.489 59.4841 106.214 60.2449L106.237 60.2759Z" fill="white"/>
<path d="M132.138 43.6489C131.85 43.6489 131.625 43.5687 131.465 43.4084C131.305 43.232 131.224 42.9916 131.224 42.6869V27.3204C131.224 26.9997 131.305 26.7592 131.465 26.5989C131.625 26.4386 131.85 26.3584 132.138 26.3584C132.395 26.3584 132.595 26.4146 132.739 26.5268C132.9 26.623 133.044 26.7913 133.172 27.0318L139.761 39.4405H139.04L145.605 27.0318C145.733 26.7913 145.869 26.623 146.014 26.5268C146.158 26.4146 146.366 26.3584 146.639 26.3584C146.912 26.3584 147.128 26.4386 147.288 26.5989C147.449 26.7592 147.529 26.9997 147.529 27.3204V42.6869C147.529 42.9916 147.449 43.232 147.288 43.4084C147.144 43.5687 146.92 43.6489 146.615 43.6489C146.326 43.6489 146.102 43.5687 145.942 43.4084C145.781 43.232 145.701 42.9916 145.701 42.6869V29.172H146.278L140.266 40.4505C140.154 40.6589 140.034 40.8112 139.906 40.9074C139.793 40.9876 139.625 41.0276 139.401 41.0276C139.176 41.0276 139 40.9795 138.872 40.8834C138.743 40.7872 138.631 40.6429 138.535 40.4505L132.451 29.148H133.028V42.6869C133.028 42.9916 132.948 43.232 132.787 43.4084C132.643 43.5687 132.427 43.6489 132.138 43.6489ZM156.75 43.697C155.516 43.697 154.45 43.4565 153.552 42.9755C152.67 42.4785 151.981 41.7811 151.484 40.8834C151.003 39.9856 150.762 38.9114 150.762 37.6609C150.762 36.4425 151.003 35.3844 151.484 34.4866C151.965 33.5728 152.622 32.8594 153.456 32.3464C154.305 31.8333 155.283 31.5768 156.39 31.5768C157.175 31.5768 157.881 31.7131 158.506 31.9856C159.131 32.2422 159.66 32.6189 160.093 33.1159C160.542 33.6129 160.879 34.2141 161.103 34.9195C161.343 35.6249 161.464 36.4185 161.464 37.3002C161.464 37.5567 161.392 37.7491 161.247 37.8774C161.103 37.9896 160.895 38.0457 160.622 38.0457H152.253V36.7712H160.165L159.78 37.0838C159.78 36.2181 159.652 35.4886 159.396 34.8954C159.139 34.2862 158.762 33.8213 158.265 33.5007C157.784 33.18 157.175 33.0197 156.438 33.0197C155.62 33.0197 154.923 33.2121 154.346 33.5969C153.784 33.9656 153.36 34.4866 153.071 35.16C152.782 35.8173 152.638 36.5868 152.638 37.4686V37.6128C152.638 39.0878 152.991 40.21 153.696 40.9795C154.418 41.7491 155.436 42.1338 156.75 42.1338C157.295 42.1338 157.833 42.0617 158.362 41.9174C158.907 41.7731 159.436 41.5326 159.949 41.196C160.173 41.0517 160.374 40.9876 160.55 41.0036C160.742 41.0036 160.895 41.0597 161.007 41.1719C161.119 41.2681 161.191 41.3964 161.223 41.5567C161.271 41.701 161.255 41.8613 161.175 42.0377C161.111 42.214 160.975 42.3663 160.766 42.4946C160.237 42.8793 159.612 43.1759 158.891 43.3843C158.169 43.5927 157.456 43.697 156.75 43.697ZM168.972 43.697C168.058 43.697 167.289 43.5366 166.664 43.216C166.054 42.8793 165.597 42.3984 165.293 41.7731C164.988 41.1319 164.836 40.3543 164.836 39.4405V33.3083H163.225C162.952 33.3083 162.744 33.2442 162.599 33.1159C162.455 32.9716 162.383 32.7792 162.383 32.5387C162.383 32.2983 162.455 32.1139 162.599 31.9856C162.744 31.8574 162.952 31.7933 163.225 31.7933H164.836V29.0278C164.836 28.7071 164.924 28.4666 165.1 28.3063C165.277 28.13 165.517 28.0418 165.822 28.0418C166.126 28.0418 166.359 28.13 166.519 28.3063C166.696 28.4666 166.784 28.7071 166.784 29.0278V31.7933H169.814C170.086 31.7933 170.295 31.8574 170.439 31.9856C170.583 32.1139 170.655 32.2983 170.655 32.5387C170.655 32.7792 170.583 32.9716 170.439 33.1159C170.295 33.2442 170.086 33.3083 169.814 33.3083H166.784V39.2481C166.784 40.1619 166.976 40.8593 167.361 41.3403C167.746 41.8052 168.371 42.0377 169.237 42.0377C169.541 42.0377 169.798 42.0056 170.006 41.9415C170.231 41.8773 170.415 41.8453 170.559 41.8453C170.704 41.8292 170.824 41.8773 170.92 41.9896C171.016 42.1018 171.064 42.2942 171.064 42.5667C171.064 42.7591 171.024 42.9354 170.944 43.0958C170.88 43.2561 170.76 43.3683 170.583 43.4324C170.391 43.4966 170.134 43.5527 169.814 43.6008C169.509 43.6649 169.229 43.697 168.972 43.697ZM176.369 43.697C175.568 43.697 174.846 43.5447 174.205 43.24C173.58 42.9194 173.083 42.4865 172.714 41.9415C172.345 41.3964 172.161 40.7872 172.161 40.1138C172.161 39.2481 172.378 38.5667 172.81 38.0698C173.259 37.5728 173.989 37.2201 174.999 37.0116C176.025 36.8032 177.42 36.699 179.183 36.699H180.265V37.9736H179.207C177.909 37.9736 176.882 38.0377 176.129 38.1659C175.392 38.2782 174.87 38.4786 174.566 38.7671C174.277 39.0557 174.133 39.4645 174.133 39.9936C174.133 40.6509 174.357 41.188 174.806 41.6048C175.271 42.0216 175.897 42.23 176.682 42.23C177.323 42.23 177.884 42.0777 178.365 41.7731C178.862 41.4685 179.247 41.0517 179.52 40.5226C179.808 39.9936 179.953 39.3844 179.953 38.695V35.9535C179.953 34.9596 179.752 34.2461 179.351 33.8133C178.951 33.3644 178.293 33.1399 177.379 33.1399C176.818 33.1399 176.257 33.2121 175.696 33.3564C175.135 33.5007 174.542 33.7331 173.917 34.0538C173.692 34.166 173.5 34.2061 173.339 34.174C173.179 34.1259 173.051 34.0377 172.955 33.9095C172.858 33.7812 172.802 33.6369 172.786 33.4766C172.77 33.3003 172.802 33.1319 172.883 32.9716C172.979 32.8113 173.123 32.683 173.315 32.5868C174.021 32.2341 174.718 31.9776 175.408 31.8173C176.097 31.657 176.754 31.5768 177.379 31.5768C178.389 31.5768 179.223 31.7452 179.88 32.0818C180.538 32.4025 181.027 32.8995 181.347 33.5728C181.668 34.2301 181.828 35.0798 181.828 36.1219V42.6388C181.828 42.9595 181.748 43.208 181.588 43.3843C181.444 43.5607 181.227 43.6489 180.939 43.6489C180.634 43.6489 180.401 43.5607 180.241 43.3843C180.081 43.208 180.001 42.9595 180.001 42.6388V40.7631H180.217C180.089 41.3723 179.84 41.8934 179.472 42.3262C179.119 42.7591 178.678 43.0958 178.149 43.3362C177.62 43.5767 177.027 43.697 176.369 43.697ZM186.765 43.6489C186.428 43.6489 186.164 43.5607 185.971 43.3843C185.795 43.192 185.707 42.9194 185.707 42.5667V27.6089C185.707 27.2562 185.795 26.9917 185.971 26.8154C186.164 26.623 186.436 26.5268 186.789 26.5268H195.518C195.791 26.5268 195.999 26.5989 196.143 26.7432C196.288 26.8875 196.36 27.0879 196.36 27.3444C196.36 27.617 196.288 27.8254 196.143 27.9697C195.999 28.1139 195.791 28.1861 195.518 28.1861H187.679V34.1019H195.013C195.286 34.1019 195.494 34.174 195.638 34.3183C195.799 34.4626 195.879 34.663 195.879 34.9195C195.879 35.192 195.799 35.4004 195.638 35.5447C195.494 35.689 195.286 35.7612 195.013 35.7612H187.679V42.5667C187.679 43.2881 187.374 43.6489 186.765 43.6489ZM200.025 43.6008C199.704 43.6008 199.464 43.5126 199.303 43.3362C199.143 43.1439 199.063 42.8793 199.063 42.5427V32.7071C199.063 32.3704 199.143 32.1139 199.303 31.9376C199.464 31.7612 199.704 31.673 200.025 31.673C200.329 31.673 200.57 31.7612 200.746 31.9376C200.923 32.1139 201.011 32.3704 201.011 32.7071V42.5427C201.011 42.8793 200.923 43.1439 200.746 43.3362C200.586 43.5126 200.345 43.6008 200.025 43.6008ZM200.025 28.9797C199.624 28.9797 199.311 28.8755 199.087 28.667C198.863 28.4426 198.75 28.146 198.75 27.7773C198.75 27.3925 198.863 27.1039 199.087 26.9115C199.311 26.7031 199.624 26.5989 200.025 26.5989C200.442 26.5989 200.754 26.7031 200.963 26.9115C201.187 27.1039 201.299 27.3925 201.299 27.7773C201.299 28.146 201.187 28.4426 200.963 28.667C200.754 28.8755 200.442 28.9797 200.025 28.9797ZM205.638 43.6489C205.318 43.6489 205.069 43.5607 204.893 43.3843C204.732 43.208 204.652 42.9595 204.652 42.6388V32.6109C204.652 32.2903 204.732 32.0498 204.893 31.8895C205.053 31.7131 205.285 31.6249 205.59 31.6249C205.895 31.6249 206.127 31.7131 206.287 31.8895C206.464 32.0498 206.552 32.2903 206.552 32.6109V34.5588H206.311C206.568 33.6129 207.057 32.8834 207.778 32.3704C208.5 31.8574 209.39 31.5848 210.448 31.5528C210.688 31.5368 210.881 31.5929 211.025 31.7211C211.169 31.8333 211.249 32.0337 211.265 32.3223C211.281 32.5949 211.217 32.8113 211.073 32.9716C210.929 33.1319 210.704 33.2281 210.4 33.2602L210.015 33.3083C208.925 33.4045 208.083 33.7572 207.49 34.3664C206.913 34.9596 206.624 35.7772 206.624 36.8193V42.6388C206.624 42.9595 206.536 43.208 206.36 43.3843C206.199 43.5607 205.959 43.6489 205.638 43.6489ZM218.396 43.697C217.162 43.697 216.096 43.4565 215.198 42.9755C214.316 42.4785 213.627 41.7811 213.13 40.8834C212.649 39.9856 212.409 38.9114 212.409 37.6609C212.409 36.4425 212.649 35.3844 213.13 34.4866C213.611 33.5728 214.268 32.8594 215.102 32.3464C215.952 31.8333 216.93 31.5768 218.036 31.5768C218.821 31.5768 219.527 31.7131 220.152 31.9856C220.777 32.2422 221.306 32.6189 221.739 33.1159C222.188 33.6129 222.525 34.2141 222.749 34.9195C222.99 35.6249 223.11 36.4185 223.11 37.3002C223.11 37.5567 223.038 37.7491 222.893 37.8774C222.749 37.9896 222.541 38.0457 222.268 38.0457H213.9V36.7712H221.811L221.427 37.0838C221.427 36.2181 221.298 35.4886 221.042 34.8954C220.785 34.2862 220.408 33.8213 219.912 33.5007C219.431 33.18 218.821 33.0197 218.084 33.0197C217.266 33.0197 216.569 33.2121 215.992 33.5969C215.431 33.9656 215.006 34.4866 214.717 35.16C214.429 35.8173 214.284 36.5868 214.284 37.4686V37.6128C214.284 39.0878 214.637 40.21 215.342 40.9795C216.064 41.7491 217.082 42.1338 218.396 42.1338C218.942 42.1338 219.479 42.0617 220.008 41.9174C220.553 41.7731 221.082 41.5326 221.595 41.196C221.819 41.0517 222.02 40.9876 222.196 41.0036C222.388 41.0036 222.541 41.0597 222.653 41.1719C222.765 41.2681 222.837 41.3964 222.869 41.5567C222.917 41.701 222.901 41.8613 222.821 42.0377C222.757 42.214 222.621 42.3663 222.412 42.4946C221.883 42.8793 221.258 43.1759 220.537 43.3843C219.815 43.5927 219.102 43.697 218.396 43.697Z" fill="#662F90"/>
<path d="M134.254 66.4512C133.924 66.4512 133.665 66.3649 133.477 66.1923C133.305 66.004 133.218 65.7373 133.218 65.3921V50.7541C133.218 50.4089 133.305 50.15 133.477 49.9775C133.665 49.7892 133.932 49.6951 134.277 49.6951H142.82C143.087 49.6951 143.291 49.7657 143.432 49.9069C143.573 50.0481 143.644 50.2442 143.644 50.4952C143.644 50.7619 143.573 50.9659 143.432 51.1071C143.291 51.2483 143.087 51.3189 142.82 51.3189H135.148V57.1082H142.326C142.593 57.1082 142.797 57.1788 142.938 57.32C143.095 57.4612 143.173 57.6574 143.173 57.9084C143.173 58.1751 143.095 58.3791 142.938 58.5203C142.797 58.6615 142.593 58.7321 142.326 58.7321H135.148V65.3921C135.148 66.0982 134.85 66.4512 134.254 66.4512ZM147.23 66.4041C146.917 66.4041 146.681 66.3178 146.524 66.1452C146.368 65.957 146.289 65.6981 146.289 65.3686V55.7433C146.289 55.4138 146.368 55.1628 146.524 54.9902C146.681 54.8176 146.917 54.7313 147.23 54.7313C147.529 54.7313 147.764 54.8176 147.936 54.9902C148.109 55.1628 148.195 55.4138 148.195 55.7433V65.3686C148.195 65.6981 148.109 65.957 147.936 66.1452C147.78 66.3178 147.544 66.4041 147.23 66.4041ZM147.23 52.0955C146.838 52.0955 146.532 51.9935 146.313 51.7896C146.093 51.5699 145.983 51.2797 145.983 50.9188C145.983 50.5423 146.093 50.2599 146.313 50.0716C146.532 49.8676 146.838 49.7657 147.23 49.7657C147.638 49.7657 147.944 49.8676 148.148 50.0716C148.368 50.2599 148.478 50.5423 148.478 50.9188C148.478 51.2797 148.368 51.5699 148.148 51.7896C147.944 51.9935 147.638 52.0955 147.23 52.0955ZM152.7 66.4512C152.386 66.4512 152.151 66.3649 151.994 66.1923C151.837 66.0197 151.759 65.7765 151.759 65.4627V55.6491C151.759 55.3353 151.837 55.1 151.994 54.9431C152.151 54.7705 152.379 54.6842 152.677 54.6842C152.975 54.6842 153.202 54.7705 153.359 54.9431C153.532 55.1 153.618 55.3353 153.618 55.6491V57.673L153.359 57.3906C153.689 56.4807 154.222 55.7982 154.959 55.3432C155.713 54.8725 156.575 54.6372 157.548 54.6372C158.458 54.6372 159.211 54.8019 159.807 55.1314C160.419 55.4609 160.874 55.9629 161.172 56.6375C161.47 57.2965 161.62 58.1359 161.62 59.1557V65.4627C161.62 65.7765 161.533 66.0197 161.361 66.1923C161.204 66.3649 160.976 66.4512 160.678 66.4512C160.364 66.4512 160.121 66.3649 159.949 66.1923C159.792 66.0197 159.713 65.7765 159.713 65.4627V59.2733C159.713 58.2065 159.501 57.4299 159.078 56.9435C158.67 56.4414 158.011 56.1904 157.101 56.1904C156.05 56.1904 155.21 56.5199 154.583 57.1788C153.971 57.8221 153.665 58.685 153.665 59.7676V65.4627C153.665 66.1217 153.343 66.4512 152.7 66.4512ZM168.735 66.4982C167.951 66.4982 167.245 66.3492 166.617 66.0511C166.005 65.7373 165.519 65.3137 165.158 64.7803C164.797 64.2468 164.617 63.6506 164.617 62.9917C164.617 62.1445 164.829 61.4777 165.252 60.9913C165.692 60.5049 166.405 60.1598 167.394 59.9558C168.398 59.7519 169.763 59.6499 171.489 59.6499H172.548V60.8972H171.512C170.241 60.8972 169.237 60.9599 168.5 61.0854C167.778 61.1953 167.268 61.3914 166.97 61.6738C166.688 61.9562 166.547 62.3563 166.547 62.874C166.547 63.5173 166.766 64.0429 167.206 64.4508C167.661 64.8587 168.272 65.0627 169.041 65.0627C169.669 65.0627 170.218 64.9136 170.689 64.6155C171.175 64.3174 171.551 63.9095 171.818 63.3918C172.101 62.874 172.242 62.2778 172.242 61.6032V58.9203C172.242 57.9476 172.046 57.2494 171.653 56.8258C171.261 56.3865 170.618 56.1669 169.724 56.1669C169.175 56.1669 168.625 56.2375 168.076 56.3787C167.527 56.5199 166.947 56.7474 166.335 57.0612C166.115 57.171 165.927 57.2102 165.77 57.1788C165.613 57.1318 165.488 57.0455 165.393 56.92C165.299 56.7944 165.244 56.6532 165.229 56.4963C165.213 56.3238 165.244 56.159 165.323 56.0021C165.417 55.8452 165.558 55.7197 165.746 55.6256C166.437 55.2804 167.119 55.0294 167.794 54.8725C168.469 54.7156 169.112 54.6372 169.724 54.6372C170.712 54.6372 171.528 54.8019 172.171 55.1314C172.814 55.4452 173.293 55.9315 173.607 56.5905C173.921 57.2337 174.077 58.0653 174.077 59.0851V65.4627C174.077 65.7765 173.999 66.0197 173.842 66.1923C173.701 66.3649 173.489 66.4512 173.207 66.4512C172.909 66.4512 172.681 66.3649 172.524 66.1923C172.367 66.0197 172.289 65.7765 172.289 65.4627V63.6271H172.501C172.375 64.2233 172.132 64.7332 171.771 65.1568C171.426 65.5804 170.994 65.9099 170.477 66.1452C169.959 66.3806 169.378 66.4982 168.735 66.4982ZM178.555 66.4512C178.241 66.4512 178.006 66.3649 177.849 66.1923C177.692 66.0197 177.614 65.7765 177.614 65.4627V55.6491C177.614 55.3353 177.692 55.1 177.849 54.9431C178.006 54.7705 178.234 54.6842 178.532 54.6842C178.83 54.6842 179.057 54.7705 179.214 54.9431C179.387 55.1 179.473 55.3353 179.473 55.6491V57.673L179.214 57.3906C179.544 56.4807 180.077 55.7982 180.815 55.3432C181.568 54.8725 182.431 54.6372 183.403 54.6372C184.313 54.6372 185.066 54.8019 185.663 55.1314C186.274 55.4609 186.729 55.9629 187.027 56.6375C187.326 57.2965 187.475 58.1359 187.475 59.1557V65.4627C187.475 65.7765 187.388 66.0197 187.216 66.1923C187.059 66.3649 186.831 66.4512 186.533 66.4512C186.219 66.4512 185.976 66.3649 185.804 66.1923C185.647 66.0197 185.568 65.7765 185.568 65.4627V59.2733C185.568 58.2065 185.357 57.4299 184.933 56.9435C184.525 56.4414 183.866 56.1904 182.956 56.1904C181.905 56.1904 181.066 56.5199 180.438 57.1788C179.826 57.8221 179.52 58.685 179.52 59.7676V65.4627C179.52 66.1217 179.199 66.4512 178.555 66.4512ZM195.838 66.4982C194.692 66.4982 193.704 66.2472 192.872 65.7452C192.041 65.2431 191.398 64.5449 190.943 63.6506C190.503 62.7407 190.284 61.6895 190.284 60.4971C190.284 59.5871 190.409 58.7713 190.66 58.0496C190.911 57.3279 191.28 56.716 191.766 56.2139C192.253 55.6962 192.833 55.304 193.508 55.0372C194.198 54.7705 194.975 54.6372 195.838 54.6372C196.402 54.6372 196.991 54.7235 197.603 54.896C198.215 55.0686 198.771 55.3667 199.274 55.7903C199.43 55.9002 199.532 56.0335 199.579 56.1904C199.627 56.3473 199.627 56.5042 199.579 56.6611C199.532 56.8023 199.454 56.9278 199.344 57.0376C199.234 57.1318 199.093 57.1867 198.921 57.2024C198.764 57.2181 198.599 57.1631 198.426 57.0376C198.018 56.7238 197.603 56.5042 197.179 56.3787C196.755 56.2532 196.347 56.1904 195.955 56.1904C195.343 56.1904 194.81 56.2924 194.355 56.4963C193.9 56.6846 193.516 56.9592 193.202 57.32C192.888 57.6809 192.645 58.128 192.472 58.6615C192.315 59.1949 192.237 59.8146 192.237 60.5206C192.237 61.8856 192.559 62.9682 193.202 63.7683C193.845 64.5528 194.763 64.945 195.955 64.945C196.347 64.945 196.748 64.8822 197.155 64.7567C197.579 64.6312 198.003 64.4116 198.426 64.0978C198.599 63.9723 198.764 63.9174 198.921 63.933C199.077 63.9487 199.211 64.0115 199.321 64.1213C199.43 64.2155 199.501 64.341 199.532 64.4979C199.579 64.6548 199.579 64.8116 199.532 64.9685C199.485 65.1097 199.383 65.2353 199.226 65.3451C198.724 65.753 198.175 66.0511 197.579 66.2394C196.983 66.4119 196.402 66.4982 195.838 66.4982ZM202.825 66.4041C202.511 66.4041 202.275 66.3178 202.119 66.1452C201.962 65.957 201.883 65.6981 201.883 65.3686V55.7433C201.883 55.4138 201.962 55.1628 202.119 54.9902C202.275 54.8176 202.511 54.7313 202.825 54.7313C203.123 54.7313 203.358 54.8176 203.531 54.9902C203.703 55.1628 203.789 55.4138 203.789 55.7433V65.3686C203.789 65.6981 203.703 65.957 203.531 66.1452C203.374 66.3178 203.138 66.4041 202.825 66.4041ZM202.825 52.0955C202.432 52.0955 202.126 51.9935 201.907 51.7896C201.687 51.5699 201.577 51.2797 201.577 50.9188C201.577 50.5423 201.687 50.2599 201.907 50.0716C202.126 49.8676 202.432 49.7657 202.825 49.7657C203.232 49.7657 203.538 49.8676 203.742 50.0716C203.962 50.2599 204.072 50.5423 204.072 50.9188C204.072 51.2797 203.962 51.5699 203.742 51.7896C203.538 51.9935 203.232 52.0955 202.825 52.0955ZM210.954 66.4982C210.169 66.4982 209.463 66.3492 208.836 66.0511C208.224 65.7373 207.737 65.3137 207.377 64.7803C207.016 64.2468 206.835 63.6506 206.835 62.9917C206.835 62.1445 207.047 61.4777 207.471 60.9913C207.91 60.5049 208.624 60.1598 209.612 59.9558C210.616 59.7519 211.981 59.6499 213.707 59.6499H214.766V60.8972H213.731C212.46 60.8972 211.456 60.9599 210.718 61.0854C209.997 61.1953 209.487 61.3914 209.189 61.6738C208.906 61.9562 208.765 62.3563 208.765 62.874C208.765 63.5173 208.985 64.0429 209.424 64.4508C209.879 64.8587 210.491 65.0627 211.26 65.0627C211.887 65.0627 212.436 64.9136 212.907 64.6155C213.393 64.3174 213.77 63.9095 214.037 63.3918C214.319 62.874 214.46 62.2778 214.46 61.6032V58.9203C214.46 57.9476 214.264 57.2494 213.872 56.8258C213.48 56.3865 212.836 56.1669 211.942 56.1669C211.393 56.1669 210.844 56.2375 210.295 56.3787C209.746 56.5199 209.165 56.7474 208.553 57.0612C208.334 57.171 208.145 57.2102 207.988 57.1788C207.832 57.1318 207.706 57.0455 207.612 56.92C207.518 56.7944 207.463 56.6532 207.447 56.4963C207.431 56.3238 207.463 56.159 207.541 56.0021C207.635 55.8452 207.777 55.7197 207.965 55.6256C208.655 55.2804 209.338 55.0294 210.012 54.8725C210.687 54.7156 211.33 54.6372 211.942 54.6372C212.931 54.6372 213.746 54.8019 214.39 55.1314C215.033 55.4452 215.511 55.9315 215.825 56.5905C216.139 57.2337 216.296 58.0653 216.296 59.0851V65.4627C216.296 65.7765 216.217 66.0197 216.061 66.1923C215.919 66.3649 215.708 66.4512 215.425 66.4512C215.127 66.4512 214.9 66.3649 214.743 66.1923C214.586 66.0197 214.507 65.7765 214.507 65.4627V63.6271H214.719C214.594 64.2233 214.35 64.7332 213.99 65.1568C213.644 65.5804 213.213 65.9099 212.695 66.1452C212.177 66.3806 211.597 66.4982 210.954 66.4982ZM223.315 66.4982C222.186 66.4982 221.323 66.1531 220.727 65.4627C220.13 64.7724 219.832 63.784 219.832 62.4975V50.4952C219.832 50.1814 219.911 49.9461 220.068 49.7892C220.225 49.6166 220.46 49.5303 220.774 49.5303C221.072 49.5303 221.307 49.6166 221.48 49.7892C221.652 49.9461 221.739 50.1814 221.739 50.4952V62.3563C221.739 63.2035 221.903 63.8389 222.233 64.2625C222.578 64.6704 223.08 64.8744 223.739 64.8744C223.88 64.8744 224.006 64.8666 224.116 64.8509C224.225 64.8352 224.335 64.8273 224.445 64.8273C224.618 64.8116 224.735 64.8509 224.798 64.945C224.876 65.0391 224.916 65.2274 224.916 65.5098C224.916 65.7922 224.853 66.004 224.727 66.1452C224.602 66.2864 224.398 66.3806 224.116 66.4276C223.99 66.4433 223.857 66.459 223.715 66.4747C223.574 66.4904 223.441 66.4982 223.315 66.4982Z" fill="#662F90"/>
<path d="M124.684 58.3662H119.534V59.3056H124.684V58.3662Z" fill="#662F90"/>
<path d="M230.291 59.3057H234.561C234.805 59.3057 235 59.096 235 58.837C235 58.578 234.803 58.3682 234.561 58.3682H230.291C230.047 58.3682 229.852 58.578 229.852 58.837C229.852 59.096 230.049 59.3057 230.291 59.3057Z" fill="#662F90"/>
<path d="M86.2398 34.3286L80.7133 41.2487L84.1312 49.3217C84.1809 49.4403 84.1418 49.5789 84.0388 49.6483C83.934 49.7158 83.8008 49.6921 83.7244 49.5917L69.6622 31.1523L48.6152 58.7375C52.749 71.025 63.7503 79.8132 76.6755 79.8132C89.7038 79.8132 100.773 70.8827 104.828 58.4438L86.2398 34.3286ZM63.8143 49.2797L50.3579 59.7117L69.4953 35.717V35.6787L69.5095 35.6988L69.5237 35.6787V35.717L79.0666 47.9698L72.5738 45.4138L68.2145 52.3703L63.8143 49.2797ZM83.6622 63.4719L76.0751 67.5421L72.0213 77.9395L72.0373 56.0866C72.0071 55.2255 72.6271 54.4976 73.4318 54.4447L86.6981 54.4793L76.0041 60.6951L83.6622 63.4719ZM87.9522 44.9267L86.3286 41.6409L82.9712 41.9164L86.3126 38.0468L95.2995 48.9422L87.9522 44.9267Z" fill="white"/>
</g>
<defs>
<linearGradient id="paint0_linear_517_61" x1="76.6739" y1="16.0567" x2="76.6739" y2="55.1427" gradientUnits="userSpaceOnUse">
<stop offset="0.2312" stop-color="#1E1E1E"/>
<stop offset="0.5246" stop-color="#42348F"/>
<stop offset="0.6859" stop-color="#2E368F"/>
<stop offset="0.7214" stop-color="#2D4799"/>
<stop offset="0.8146" stop-color="#2D6FB4"/>
<stop offset="0.8917" stop-color="#2C8ECB"/>
<stop offset="0.9489" stop-color="#2AA2DB"/>
<stop offset="0.9799" stop-color="#29AAE2"/>
</linearGradient>
<clipPath id="clip0_517_61">
<rect width="192" height="72" fill="white" transform="translate(43 12)"/>
</clipPath>
</defs>
</svg>
