<svg width="431" height="173" viewBox="0 0 431 173" fill="none" xmlns="http://www.w3.org/2000/svg">
<g clip-path="url(#clip0_518_162)">
<path d="M217.878 80.1303C217.772 79.8973 217.623 79.6868 217.438 79.5103C217.249 79.3411 217.037 79.1996 216.808 79.0903C216.573 78.9783 216.333 78.8782 216.088 78.7903C215.848 78.7103 215.608 78.6303 215.368 78.5603C215.154 78.4913 214.947 78.4043 214.748 78.3003C214.575 78.2211 214.421 78.1051 214.298 77.9603C214.186 77.8222 214.129 77.6478 214.138 77.4703C214.132 77.3229 214.16 77.176 214.218 77.0403C214.271 76.9075 214.357 76.7905 214.468 76.7003C214.589 76.6017 214.728 76.527 214.878 76.4803C215.063 76.425 215.255 76.3981 215.448 76.4003C215.661 76.3964 215.874 76.4268 216.078 76.4903C216.239 76.5454 216.396 76.6123 216.548 76.6903C216.678 76.7703 216.788 76.8303 216.888 76.9003C216.968 76.954 217.061 76.9851 217.158 76.9903C217.229 76.9905 217.299 76.9696 217.358 76.9303C217.422 76.8839 217.474 76.822 217.508 76.7503L217.888 76.0103C217.58 75.7201 217.216 75.4955 216.818 75.3503C216.371 75.1955 215.901 75.1178 215.428 75.1203C215.026 75.1157 214.626 75.1835 214.248 75.3203C213.926 75.4473 213.631 75.6339 213.378 75.8703C213.147 76.0913 212.964 76.3566 212.838 76.6503C212.719 76.9354 212.658 77.2414 212.658 77.5503C212.649 77.8818 212.707 78.2116 212.828 78.5203C212.925 78.7694 213.076 78.9945 213.268 79.1803C213.45 79.3604 213.664 79.506 213.898 79.6103C214.129 79.7183 214.366 79.8118 214.608 79.8903C214.848 79.9703 215.088 80.0403 215.328 80.1103C215.541 80.173 215.748 80.2533 215.948 80.3503C216.122 80.4372 216.275 80.5599 216.398 80.7103C216.511 80.8668 216.568 81.0573 216.558 81.2503C216.57 81.4217 216.543 81.5935 216.479 81.7529C216.415 81.9122 216.315 82.055 216.188 82.1703C215.892 82.4 215.522 82.5138 215.148 82.4903C214.893 82.4961 214.639 82.4554 214.398 82.3703C214.206 82.2985 214.022 82.2081 213.848 82.1003C213.698 82.0003 213.558 81.9203 213.448 81.8403C213.356 81.7677 213.245 81.7257 213.128 81.7203C213.058 81.7166 212.988 81.734 212.928 81.7703C212.869 81.8061 212.818 81.8538 212.778 81.9103L212.318 82.6703C212.487 82.8412 212.675 82.9922 212.878 83.1203C213.087 83.2624 213.312 83.3798 213.548 83.4703C213.793 83.5725 214.047 83.6495 214.308 83.7003C214.568 83.7522 214.833 83.779 215.098 83.7803C215.525 83.79 215.95 83.7153 216.348 83.5603C216.695 83.4334 217.011 83.2359 217.278 82.9803C217.526 82.733 217.72 82.4367 217.848 82.1103C217.98 81.7657 218.048 81.3996 218.048 81.0303C218.054 80.7218 217.996 80.4153 217.878 80.1303Z" fill="#005387"/>
<path d="M224.962 75.21V80.29C224.963 80.589 224.916 80.8862 224.822 81.17C224.748 81.4164 224.618 81.6424 224.442 81.83C224.276 82.0201 224.067 82.1676 223.832 82.26C223.307 82.46 222.727 82.46 222.202 82.26C221.968 82.1651 221.76 82.018 221.592 81.83C221.425 81.6321 221.296 81.4049 221.212 81.16C221.125 80.8747 221.082 80.5781 221.082 80.28V75.21H219.502V80.29C219.5 80.7646 219.585 81.2357 219.752 81.68C219.902 82.0965 220.141 82.4753 220.452 82.79C220.765 83.1058 221.139 83.3543 221.552 83.52C222.498 83.8667 223.536 83.8667 224.482 83.52C224.896 83.352 225.274 83.1039 225.592 82.79C225.9 82.4727 226.138 82.0946 226.292 81.68C226.456 81.2351 226.537 80.764 226.532 80.29V75.21H224.962Z" fill="#005387"/>
<path d="M234.402 76.8197C234.273 76.4925 234.067 76.201 233.802 75.9697C233.503 75.7111 233.152 75.5201 232.772 75.4097C232.295 75.2686 231.799 75.2011 231.302 75.2097H228.542V83.6797H230.122V80.6997H231.302C231.789 80.707 232.275 80.6396 232.742 80.4997C233.122 80.3803 233.473 80.1828 233.772 79.9197C234.043 79.6796 234.252 79.3778 234.382 79.0397C234.525 78.6804 234.597 78.2965 234.592 77.9097C234.592 77.5381 234.528 77.1693 234.402 76.8197ZM232.912 78.5597C232.845 78.7458 232.735 78.9136 232.592 79.0497C232.442 79.193 232.26 79.2992 232.062 79.3597C231.816 79.4355 231.56 79.4727 231.302 79.4697H230.122V76.4297H231.302C231.559 76.4238 231.815 76.4575 232.062 76.5297C232.258 76.5908 232.439 76.6931 232.592 76.8297C232.735 76.9583 232.845 77.1196 232.912 77.2997C232.982 77.4952 233.016 77.702 233.012 77.9097C233.017 78.1306 232.983 78.3506 232.912 78.5597Z" fill="#005387"/>
<path d="M242.072 76.8197C241.943 76.4925 241.737 76.201 241.472 75.9697C241.177 75.7111 240.829 75.52 240.452 75.4097C239.975 75.2686 239.479 75.2011 238.982 75.2097H236.222V83.6797H237.792V80.6997H238.982C239.47 80.707 239.955 80.6396 240.422 80.4997C240.801 80.378 241.152 80.1807 241.452 79.9197C241.72 79.6769 241.929 79.3758 242.062 79.0397C242.339 78.3262 242.342 77.5357 242.072 76.8197ZM240.582 78.5597C240.519 78.7452 240.413 78.9131 240.272 79.0497C240.12 79.1953 239.935 79.3017 239.732 79.3597C239.49 79.4363 239.236 79.4735 238.982 79.4697H237.792V76.4297H238.982C239.236 76.423 239.489 76.4568 239.732 76.5297C239.932 76.5885 240.117 76.691 240.272 76.8297C240.412 76.9589 240.519 77.1202 240.582 77.2997C240.656 77.4946 240.693 77.7014 240.692 77.9097C240.693 78.1314 240.654 78.3514 240.578 78.5597H240.582Z" fill="#005387"/>
<path d="M251.662 77.7196C251.464 77.2109 251.168 76.7456 250.792 76.3496C250.406 75.9591 249.943 75.6527 249.432 75.4496C248.877 75.2234 248.282 75.1112 247.682 75.1196C247.081 75.1139 246.483 75.2225 245.922 75.4396C245.415 75.6479 244.956 75.9576 244.572 76.3497C244.189 76.7417 243.889 77.2078 243.692 77.7196C243.48 78.2714 243.375 78.8585 243.382 79.4496C243.375 80.0374 243.48 80.6212 243.692 81.1696C243.89 81.6837 244.19 82.153 244.572 82.5496C244.955 82.9398 245.415 83.2463 245.922 83.4496C246.481 83.6748 247.079 83.787 247.682 83.7796C248.282 83.788 248.877 83.6757 249.432 83.4496C249.943 83.2464 250.406 82.94 250.792 82.5496C251.168 82.1499 251.464 81.6813 251.662 81.1696C251.874 80.6212 251.979 80.0374 251.972 79.4496C251.979 78.8585 251.874 78.2714 251.662 77.7196ZM250.172 80.6996C250.063 81.0463 249.882 81.3665 249.642 81.6396C249.408 81.8943 249.121 82.0955 248.802 82.2296C248.079 82.4962 247.285 82.4962 246.562 82.2296C246.241 82.0932 245.952 81.8924 245.712 81.6396C245.472 81.3665 245.292 81.0463 245.182 80.6996C245.049 80.2966 244.985 79.874 244.992 79.4496C244.984 79.0251 245.048 78.6024 245.182 78.1996C245.289 77.8518 245.47 77.5312 245.712 77.2596C245.949 77.0007 246.239 76.796 246.562 76.6596C247.285 76.3929 248.079 76.3929 248.802 76.6596C249.124 76.7936 249.411 76.9987 249.642 77.2596C249.884 77.5312 250.065 77.8518 250.172 78.1996C250.298 78.6041 250.359 79.026 250.352 79.4496C250.358 79.8731 250.297 80.2949 250.172 80.6996Z" fill="#005387"/>
<path d="M258.112 80.56C257.987 80.3557 257.811 80.187 257.602 80.07C257.882 79.9801 258.147 79.8522 258.392 79.69C258.618 79.5451 258.818 79.3625 258.982 79.15C259.137 78.9401 259.258 78.7073 259.342 78.46C259.426 78.1981 259.47 77.925 259.472 77.65C259.473 77.3109 259.408 76.9748 259.282 76.66C259.156 76.3592 258.956 76.0946 258.702 75.89C258.401 75.6588 258.058 75.4889 257.692 75.39C257.206 75.2607 256.705 75.2001 256.202 75.21H253.622V83.68H255.192V80.37H255.872C255.993 80.3667 256.112 80.3906 256.222 80.44C256.316 80.489 256.393 80.5658 256.442 80.66L258.222 83.37C258.285 83.4665 258.371 83.5456 258.472 83.6C258.578 83.6603 258.7 83.6881 258.822 83.68H260.232L258.112 80.56ZM256.962 79.13C256.71 79.2099 256.446 79.2471 256.182 79.24H255.192V76.43H256.202C256.663 76.3912 257.123 76.515 257.502 76.78C257.644 76.9014 257.755 77.054 257.828 77.2257C257.901 77.3975 257.933 77.5838 257.922 77.77C257.926 77.9712 257.892 78.1713 257.822 78.36C257.752 78.5359 257.643 78.6933 257.502 78.82C257.347 78.962 257.163 79.0679 256.962 79.13Z" fill="#005387"/>
<path d="M260.552 75.21V76.51H263.112V83.68H264.692V76.51H267.242V75.21H260.552Z" fill="#005387"/>
<path d="M268.778 75.21V83.68H270.368V75.21H268.778Z" fill="#005387"/>
<path d="M278.792 75.2102C278.669 75.2066 278.549 75.2455 278.452 75.3202C278.371 75.3886 278.306 75.474 278.262 75.5702L276.282 80.7402C276.136 81.1267 276.022 81.5248 275.942 81.9302C275.892 81.7002 275.832 81.4902 275.772 81.2902C275.712 81.0902 275.652 80.9102 275.582 80.7402L273.592 75.5702C273.552 75.4659 273.483 75.3755 273.392 75.3102C273.298 75.2374 273.181 75.2018 273.062 75.2102H271.792L275.212 83.6802H276.642L280.062 75.2102H278.792Z" fill="#005387"/>
<path d="M286.642 76.46V75.21H281.302V83.68H286.642V82.42H282.878V80.03H285.838V78.81H282.878V76.46H286.642Z" fill="#005387"/>
<path d="M295.878 80.1304C295.776 79.8954 295.626 79.6842 295.438 79.5104C295.253 79.3368 295.04 79.1949 294.808 79.0904C294.578 78.9804 294.338 78.8804 294.098 78.7904C293.858 78.7004 293.608 78.6304 293.378 78.5604C293.161 78.4931 292.95 78.4061 292.748 78.3004C292.578 78.2211 292.428 78.105 292.308 77.9604C292.193 77.8234 292.133 77.6491 292.138 77.4704C292.138 77.3233 292.165 77.1775 292.218 77.0404C292.275 76.9096 292.36 76.7933 292.468 76.7004C292.59 76.6018 292.729 76.5271 292.878 76.4804C293.274 76.3706 293.694 76.3741 294.088 76.4904C294.246 76.5455 294.4 76.6123 294.548 76.6904C294.678 76.7704 294.798 76.8304 294.898 76.9004C294.974 76.9552 295.065 76.9865 295.158 76.9904C295.23 76.9936 295.3 76.9724 295.358 76.9304C295.427 76.8896 295.48 76.826 295.508 76.7504L295.898 76.0104C295.585 75.7221 295.218 75.4979 294.818 75.3504C294.375 75.1948 293.908 75.117 293.438 75.1204C293.036 75.1149 292.636 75.1827 292.258 75.3204C291.936 75.4473 291.641 75.634 291.388 75.8704C291.151 76.086 290.967 76.3528 290.848 76.6504C290.729 76.9355 290.668 77.2415 290.668 77.5504C290.656 77.8812 290.711 78.2109 290.828 78.5204C290.926 78.7695 291.076 78.9946 291.268 79.1804C291.454 79.3561 291.667 79.5012 291.898 79.6104C292.132 79.7184 292.373 79.8119 292.618 79.8904C292.858 79.9704 293.098 80.0404 293.328 80.1104C293.544 80.1732 293.755 80.2535 293.958 80.3504C294.127 80.4401 294.277 80.5624 294.398 80.7104C294.515 80.8657 294.575 81.0563 294.568 81.2504C294.58 81.4218 294.553 81.5936 294.489 81.753C294.425 81.9123 294.325 82.0551 294.198 82.1704C293.9 82.3972 293.532 82.5106 293.158 82.4904C292.9 82.497 292.642 82.4563 292.398 82.3704C292.209 82.3008 292.028 82.2102 291.858 82.1004C291.698 82.0004 291.568 81.9204 291.458 81.8404C291.366 81.7692 291.254 81.7274 291.138 81.7204C291.068 81.7167 290.998 81.7341 290.938 81.7704C290.878 81.8087 290.824 81.8559 290.778 81.9104L290.328 82.6704C290.496 82.8388 290.68 82.9896 290.878 83.1204C291.091 83.2626 291.319 83.38 291.558 83.4704C291.8 83.5725 292.051 83.6496 292.308 83.7004C292.572 83.7523 292.84 83.7791 293.108 83.7804C293.535 83.7892 293.96 83.7145 294.358 83.5604C294.702 83.4334 295.015 83.2358 295.278 82.9804C295.526 82.7331 295.72 82.4368 295.848 82.1104C295.985 81.7672 296.053 81.4001 296.048 81.0304C296.06 80.7215 296.001 80.4139 295.878 80.1304Z" fill="#005387"/>
<path d="M302.952 76.46V75.21H297.612V83.68H302.952V82.42H299.202V80.03H302.162V78.81H299.202V76.46H302.952Z" fill="#005387"/>
<path d="M309.222 80.5601C309.091 80.3574 308.912 80.1893 308.702 80.0701C308.985 79.9801 309.254 79.8523 309.502 79.6901C309.725 79.545 309.922 79.3623 310.082 79.1501C310.24 78.9405 310.365 78.7077 310.452 78.4601C310.533 78.1976 310.573 77.9245 310.572 77.6501C310.576 77.3116 310.515 76.9755 310.392 76.6601C310.262 76.3613 310.063 76.0974 309.812 75.8901C309.508 75.6588 309.161 75.489 308.792 75.3901C308.31 75.2606 307.812 75.2 307.312 75.2101H304.722V83.6801H306.302V80.3701H306.972C307.096 80.3657 307.219 80.3897 307.332 80.4401C307.424 80.4918 307.5 80.5679 307.552 80.6601L309.332 83.3701C309.394 83.4638 309.476 83.5424 309.572 83.6001C309.679 83.658 309.8 83.6857 309.922 83.6801H311.342L309.222 80.5601ZM308.062 79.1301C307.814 79.2107 307.553 79.2479 307.292 79.2401H306.302V76.4301H307.312C307.773 76.393 308.232 76.5167 308.612 76.7801C308.754 76.9014 308.866 77.054 308.938 77.2257C309.011 77.3975 309.043 77.5838 309.032 77.7701C309.036 77.9712 309.002 78.1713 308.932 78.3601C308.862 78.5359 308.753 78.6933 308.612 78.8201C308.452 78.9601 308.265 79.0656 308.062 79.1301Z" fill="#005387"/>
<path d="M318.862 75.2102C318.743 75.2082 318.626 75.247 318.532 75.3202C318.451 75.3886 318.386 75.4739 318.342 75.5702L316.362 80.7402C316.211 81.1252 316.097 81.5236 316.022 81.9302C315.972 81.7002 315.912 81.4902 315.852 81.2902C315.792 81.0902 315.732 80.9102 315.662 80.7402L313.672 75.5702C313.629 75.4679 313.56 75.3783 313.472 75.3102C313.378 75.2374 313.261 75.2018 313.142 75.2102H311.872L315.292 83.6802H316.712L320.142 75.2102H318.862Z" fill="#005387"/>
<path d="M321.572 75.21V83.68H323.152V75.21H321.572Z" fill="#005387"/>
<path d="M331.232 81.6901C331.184 81.6894 331.136 81.6997 331.092 81.7201C331.049 81.7409 331.008 81.7678 330.972 81.8001C330.852 81.9125 330.722 82.0129 330.582 82.1001C330.45 82.1827 330.31 82.2498 330.162 82.3001C330.005 82.3484 329.845 82.3852 329.682 82.4101C329.49 82.4311 329.296 82.4412 329.102 82.4401C328.755 82.4464 328.411 82.3782 328.092 82.2401C327.781 82.1079 327.501 81.9101 327.272 81.6601C327.033 81.3851 326.849 81.0657 326.732 80.7201C326.587 80.3128 326.515 79.8826 326.522 79.4501C326.516 79.0242 326.587 78.6007 326.732 78.2001C326.852 77.8515 327.043 77.5315 327.292 77.2601C327.533 77.0039 327.827 76.8027 328.152 76.6701C328.501 76.5268 328.875 76.4553 329.252 76.4601C329.536 76.4513 329.819 76.485 330.092 76.5601C330.282 76.6198 330.466 76.6968 330.642 76.7901C330.782 76.8801 330.902 76.9501 331.002 77.0201C331.077 77.0859 331.173 77.1247 331.272 77.1301C331.344 77.1347 331.415 77.1134 331.472 77.0701C331.522 77.0407 331.563 76.9995 331.592 76.9501L332.122 76.2201C331.772 75.8806 331.362 75.6093 330.912 75.4201C330.388 75.2099 329.827 75.1079 329.262 75.1201C328.657 75.1104 328.056 75.2191 327.492 75.4401C326.978 75.6376 326.512 75.9408 326.122 76.3301C325.733 76.7195 325.43 77.1862 325.232 77.7001C325.015 78.2578 324.907 78.8517 324.912 79.4501C324.908 80.0425 325.006 80.6313 325.202 81.1901C325.377 81.6966 325.653 82.1626 326.012 82.5601C326.377 82.9437 326.816 83.2498 327.302 83.4601C327.842 83.6791 328.42 83.7879 329.002 83.7801C329.62 83.7979 330.234 83.6819 330.802 83.4401C331.299 83.2221 331.735 82.8857 332.072 82.4601L331.452 81.7901C331.426 81.7575 331.392 81.7315 331.354 81.7141C331.316 81.6968 331.274 81.6886 331.232 81.6901Z" fill="#005387"/>
<path d="M338.962 76.46V75.21H333.612V83.68H338.962V82.42H335.202V80.03H338.162V78.81H335.202V76.46H338.962Z" fill="#005387"/>
<path d="M345.592 80.1303C345.487 79.8973 345.337 79.6868 345.152 79.5103C344.965 79.3388 344.753 79.1972 344.522 79.0903C344.287 78.9783 344.047 78.8782 343.802 78.7903C343.562 78.7103 343.322 78.6303 343.082 78.5603C342.869 78.4913 342.661 78.4043 342.462 78.3003C342.289 78.2212 342.136 78.1051 342.012 77.9603C341.901 77.8222 341.844 77.6478 341.852 77.4703C341.852 77.3233 341.879 77.1774 341.932 77.0403C341.985 76.9075 342.071 76.7905 342.182 76.7003C342.304 76.6017 342.443 76.527 342.592 76.4803C342.777 76.425 342.969 76.3981 343.162 76.4003C343.376 76.3965 343.588 76.4269 343.792 76.4903C343.954 76.5455 344.111 76.6123 344.262 76.6903C344.392 76.7703 344.502 76.8303 344.602 76.9003C344.683 76.954 344.776 76.9851 344.872 76.9903C344.943 76.9905 345.013 76.9696 345.072 76.9303C345.139 76.8866 345.191 76.824 345.222 76.7503L345.602 76.0103C345.294 75.72 344.93 75.4955 344.532 75.3503C344.085 75.1955 343.615 75.1178 343.142 75.1203C342.74 75.1158 342.34 75.1835 341.962 75.3203C341.64 75.4473 341.345 75.6339 341.092 75.8703C340.861 76.0891 340.681 76.3552 340.562 76.6503C340.435 76.9333 340.371 77.2402 340.372 77.5503C340.364 77.8818 340.421 78.2116 340.542 78.5203C340.64 78.7694 340.79 78.9945 340.982 79.1803C341.165 79.3604 341.378 79.506 341.612 79.6103C341.843 79.7183 342.08 79.8118 342.322 79.8903C342.562 79.9703 342.802 80.0403 343.042 80.1103C343.258 80.1748 343.468 80.255 343.672 80.3503C343.841 80.44 343.991 80.5623 344.112 80.7103C344.226 80.8668 344.282 81.0573 344.272 81.2503C344.283 81.4207 344.257 81.5915 344.195 81.7505C344.133 81.9095 344.036 82.0529 343.912 82.1703C343.611 82.3985 343.239 82.512 342.862 82.4903C342.607 82.4961 342.353 82.4554 342.112 82.3703C341.921 82.2985 341.736 82.2081 341.562 82.1003C341.412 82.0003 341.282 81.9203 341.162 81.8403C341.074 81.7695 340.965 81.7276 340.852 81.7203C340.779 81.7154 340.706 81.7328 340.642 81.7703C340.583 81.8061 340.532 81.8538 340.492 81.9103L340.032 82.6703C340.203 82.8388 340.391 82.9896 340.592 83.1203C340.801 83.2624 341.026 83.3799 341.262 83.4703C341.507 83.5725 341.762 83.6495 342.022 83.7003C342.282 83.7517 342.547 83.7785 342.812 83.7803C343.239 83.79 343.664 83.7153 344.062 83.5603C344.409 83.4334 344.726 83.2359 344.992 82.9803C345.24 82.733 345.435 82.4367 345.562 82.1103C345.695 81.7657 345.763 81.3996 345.762 81.0303C345.769 80.7218 345.711 80.4153 345.592 80.1303Z" fill="#005387"/>
<path d="M355.272 76.46V75.21H349.932V83.68H351.522V80.23H354.692V78.97H351.522V76.46H355.272Z" fill="#005387"/>
<path d="M364.678 77.7205C364.479 77.2118 364.184 76.7465 363.808 76.3505C363.421 75.96 362.958 75.6536 362.448 75.4505C361.892 75.2252 361.297 75.1131 360.698 75.1205C360.096 75.1147 359.499 75.2233 358.938 75.4405C358.431 75.6488 357.971 75.9585 357.588 76.3505C357.204 76.7426 356.905 77.2087 356.708 77.7205C356.496 78.2723 356.391 78.8594 356.398 79.4505C356.391 80.0383 356.496 80.6221 356.708 81.1705C356.906 81.6846 357.205 82.1539 357.588 82.5505C357.971 82.9407 358.43 83.2472 358.938 83.4505C359.497 83.6757 360.095 83.7879 360.698 83.7805C361.297 83.7879 361.892 83.6757 362.448 83.4505C362.958 83.2473 363.421 82.9409 363.808 82.5505C364.184 82.1508 364.479 81.6822 364.678 81.1705C364.89 80.6221 364.995 80.0383 364.988 79.4505C364.995 78.8594 364.89 78.2723 364.678 77.7205ZM363.188 80.7005C363.074 81.0455 362.894 81.3649 362.658 81.6405C362.423 81.8952 362.137 82.0964 361.818 82.2305C361.095 82.4971 360.301 82.4971 359.578 82.2305C359.257 82.0941 358.968 81.8933 358.728 81.6405C358.488 81.3673 358.307 81.0472 358.198 80.7005C358.065 80.2975 358 79.8749 358.008 79.4505C358 79.026 358.064 78.6033 358.198 78.2005C358.305 77.8527 358.486 77.5321 358.728 77.2605C358.965 77.0016 359.255 76.7969 359.578 76.6605C360.301 76.3938 361.095 76.3938 361.818 76.6605C362.139 76.7945 362.427 76.9996 362.658 77.2605C362.896 77.5346 363.077 77.8544 363.188 78.2005C363.313 78.605 363.374 79.0269 363.368 79.4505C363.375 79.8738 363.315 80.2955 363.192 80.7005H363.188Z" fill="#005387"/>
<path d="M371.132 80.5599C371.004 80.3578 370.829 80.1897 370.622 80.0699C370.902 79.9799 371.167 79.8521 371.412 79.6899C371.638 79.545 371.838 79.3623 372.002 79.1499C372.153 78.9376 372.274 78.7054 372.362 78.4599C372.442 78.1975 372.483 77.9244 372.482 77.6499C372.486 77.3114 372.425 76.9753 372.302 76.6599C372.176 76.3591 371.976 76.0945 371.722 75.8899C371.421 75.6586 371.078 75.4887 370.712 75.3899C370.226 75.2612 369.725 75.2006 369.222 75.2099H366.642V83.6799H368.212V80.3699H368.892C369.013 80.3666 369.132 80.3905 369.242 80.4399C369.334 80.4916 369.41 80.5678 369.462 80.6599L371.242 83.3699C371.305 83.4664 371.391 83.5455 371.492 83.5999C371.595 83.659 371.713 83.6868 371.832 83.6799H373.252L371.132 80.5599ZM369.972 79.1299C369.724 79.2106 369.463 79.2478 369.202 79.2399H368.212V76.4299H369.222C369.683 76.3911 370.143 76.5149 370.522 76.7799C370.664 76.9013 370.775 77.0538 370.848 77.2256C370.921 77.3974 370.953 77.5837 370.942 77.7699C370.946 77.9711 370.912 78.1711 370.842 78.3599C370.772 78.5358 370.663 78.6932 370.522 78.8199C370.363 78.962 370.176 79.0678 369.972 79.1299Z" fill="#005387"/>
<path d="M228.902 91.5303V90.2803H223.552V98.7503H225.142V95.3003H228.312V94.0403H225.142V91.5303H228.902Z" fill="#005387"/>
<path d="M233.752 90.2803H232.132L228.802 98.7503H230.032C230.144 98.7527 230.255 98.7204 230.348 98.6577C230.441 98.595 230.512 98.5051 230.552 98.4003L231.182 96.6703H234.692L235.332 98.4003C235.371 98.4995 235.437 98.5861 235.522 98.6503C235.618 98.7203 235.734 98.7556 235.852 98.7503H237.072L233.752 90.2803ZM231.592 95.5503L232.622 92.7503C232.672 92.6203 232.722 92.4703 232.782 92.3003C232.842 92.1303 232.882 91.9403 232.942 91.7403C232.992 91.9403 233.052 92.1203 233.102 92.2903C233.152 92.4603 233.212 92.6103 233.262 92.7403L234.292 95.5503H231.592Z" fill="#005387"/>
<path d="M246.302 90.28C246.242 90.2777 246.182 90.2811 246.122 90.29C246.074 90.2882 246.026 90.2985 245.982 90.32C245.94 90.3335 245.902 90.3576 245.872 90.39C245.831 90.4305 245.797 90.4779 245.772 90.53L243.262 95.23C243.202 95.35 243.132 95.48 243.072 95.62C243.012 95.76 242.962 95.89 242.902 96.04C242.852 95.9 242.792 95.76 242.742 95.63C242.687 95.4962 242.624 95.366 242.552 95.24L240.022 90.53C239.997 90.4779 239.963 90.4305 239.922 90.39C239.892 90.3576 239.854 90.3335 239.812 90.32C239.768 90.2995 239.721 90.2892 239.672 90.29C239.613 90.2811 239.552 90.2777 239.492 90.28H238.302V98.75H239.692V93.28C239.692 93.17 239.682 93.06 239.682 92.94C239.682 92.82 239.662 92.69 239.652 92.56L242.242 97.38C242.297 97.4838 242.376 97.573 242.472 97.64C242.571 97.7024 242.686 97.7338 242.802 97.73H243.022C243.135 97.7324 243.247 97.701 243.342 97.64C243.441 97.5758 243.521 97.486 243.572 97.38L246.132 92.58C246.122 92.7 246.112 92.83 246.112 92.95C246.112 93.07 246.102 93.18 246.102 93.28V98.75H247.492V90.28H246.302Z" fill="#005387"/>
<path d="M249.742 90.2803V98.7503H251.332V90.2803H249.742Z" fill="#005387"/>
<path d="M255.162 97.4503V90.2803H253.578V98.7503H258.548V97.4503H255.162Z" fill="#005387"/>
<path d="M260.192 90.2803V98.7503H261.772V90.2803H260.192Z" fill="#005387"/>
<path d="M269.372 91.5303V90.2803H264.022V98.7503H269.372V97.4903H265.612V95.1003H268.572V93.8803H265.612V91.5303H269.372Z" fill="#005387"/>
<path d="M276.002 95.2005C275.896 94.9675 275.747 94.757 275.562 94.5805C275.375 94.409 275.162 94.2674 274.932 94.1605C274.699 94.0443 274.458 93.9441 274.212 93.8605C273.972 93.7805 273.732 93.7005 273.492 93.6305C273.278 93.5614 273.071 93.4745 272.872 93.3705C272.699 93.2913 272.545 93.1753 272.422 93.0305C272.31 92.8923 272.253 92.7179 272.262 92.5405C272.261 92.3934 272.289 92.2476 272.342 92.1105C272.392 91.9762 272.479 91.8586 272.592 91.7705C272.711 91.6682 272.851 91.5931 273.002 91.5505C273.187 91.4952 273.379 91.4682 273.572 91.4705C273.785 91.4666 273.998 91.497 274.202 91.5605C274.363 91.6156 274.52 91.6825 274.672 91.7605C274.802 91.8405 274.922 91.9005 275.012 91.9605C275.089 92.0209 275.184 92.0558 275.282 92.0605C275.353 92.0606 275.423 92.0398 275.482 92.0005C275.551 91.9597 275.604 91.8961 275.632 91.8205L276.012 91.0805C275.704 90.7902 275.34 90.5657 274.942 90.4205C274.496 90.2609 274.025 90.183 273.552 90.1905C273.153 90.18 272.755 90.248 272.382 90.3905C272.056 90.515 271.757 90.7018 271.502 90.9405C271.271 91.1593 271.09 91.4253 270.972 91.7205C270.845 92.0035 270.78 92.3104 270.782 92.6205C270.774 92.9519 270.832 93.2815 270.952 93.5905C271.049 93.8395 271.2 94.0646 271.392 94.2505C271.574 94.4305 271.788 94.5762 272.022 94.6805C272.253 94.7884 272.49 94.8819 272.732 94.9605C272.972 95.0405 273.212 95.1105 273.452 95.1805C273.667 95.245 273.878 95.3252 274.082 95.4205C274.251 95.5101 274.401 95.6325 274.522 95.7805C274.635 95.9369 274.692 96.1275 274.682 96.3205C274.693 96.4909 274.667 96.6617 274.605 96.8207C274.542 96.9797 274.446 97.123 274.322 97.2405C274.021 97.4687 273.649 97.5821 273.272 97.5605C273.017 97.5663 272.763 97.5256 272.522 97.4405C272.33 97.3687 272.146 97.2783 271.972 97.1705C271.822 97.0705 271.692 96.9905 271.572 96.9105C271.483 96.8397 271.375 96.7978 271.262 96.7905C271.188 96.7855 271.115 96.803 271.052 96.8405C270.993 96.8763 270.942 96.924 270.902 96.9805L270.442 97.7305C270.613 97.9022 270.8 98.0563 271.002 98.1905C271.211 98.3326 271.436 98.45 271.672 98.5405C271.917 98.6413 272.172 98.7183 272.432 98.7705C272.692 98.8219 272.957 98.8486 273.222 98.8505C273.649 98.8602 274.074 98.7855 274.472 98.6305C274.819 98.5036 275.135 98.3061 275.402 98.0505C275.653 97.8012 275.847 97.5011 275.972 97.1705C276.105 96.8296 276.173 96.4666 276.172 96.1005C276.178 95.792 276.12 95.4855 276.002 95.2005Z" fill="#005387"/>
<path d="M286.102 96.9103C286.376 96.5159 286.585 96.0805 286.722 95.6203C286.872 95.1415 286.946 94.6421 286.942 94.1403H286.042C286.002 94.1368 285.961 94.1422 285.923 94.156C285.885 94.1698 285.851 94.1918 285.822 94.2204C285.793 94.249 285.771 94.2835 285.758 94.3215C285.744 94.3595 285.738 94.4001 285.742 94.4403C285.714 94.7213 285.66 94.9991 285.582 95.2703C285.512 95.5423 285.408 95.8044 285.272 96.0503L283.022 93.7103C282.906 93.5949 282.799 93.4713 282.702 93.3403C282.618 93.2341 282.544 93.1203 282.482 93.0003C282.432 92.8978 282.391 92.7907 282.362 92.6803C282.342 92.5681 282.332 92.4543 282.332 92.3403C282.329 92.2037 282.353 92.0679 282.402 91.9403C282.443 91.8136 282.511 91.6975 282.602 91.6003C282.697 91.5048 282.809 91.4269 282.932 91.3703C283.072 91.317 283.222 91.2899 283.372 91.2903C283.495 91.2874 283.617 91.3077 283.732 91.3503C283.833 91.3893 283.927 91.4433 284.012 91.5103C284.089 91.581 284.156 91.6617 284.212 91.7503C284.263 91.8431 284.307 91.9401 284.342 92.0403C284.368 92.1109 284.413 92.1731 284.472 92.2203C284.526 92.2532 284.588 92.2705 284.652 92.2703H284.722L285.642 92.0703C285.622 91.8273 285.558 91.59 285.452 91.3703C285.34 91.1419 285.183 90.9379 284.992 90.7703C284.787 90.585 284.55 90.4391 284.292 90.3403C283.996 90.2364 283.685 90.1856 283.372 90.1903C283.027 90.1815 282.684 90.2392 282.362 90.3603C282.08 90.4603 281.824 90.6207 281.612 90.8303C281.407 91.0195 281.246 91.2518 281.142 91.5103C281.034 91.7772 280.98 92.0626 280.982 92.3503C280.984 92.6327 281.032 92.9128 281.122 93.1803C281.234 93.4874 281.389 93.7769 281.582 94.0403C281.338 94.1565 281.107 94.2972 280.892 94.4603C280.689 94.6231 280.505 94.8075 280.342 95.0103C280.194 95.2125 280.076 95.4348 279.992 95.6703C279.904 95.9104 279.859 96.1645 279.862 96.4203C279.854 96.7697 279.93 97.1158 280.082 97.4303C280.227 97.7255 280.431 97.9876 280.682 98.2003C280.928 98.4137 281.213 98.5768 281.522 98.6803C281.83 98.7916 282.154 98.8491 282.482 98.8503C282.99 98.8528 283.495 98.7648 283.972 98.5903C284.425 98.4238 284.847 98.1839 285.222 97.8803L285.812 98.4803C285.856 98.5265 285.903 98.5699 285.952 98.6103C285.997 98.6475 286.048 98.6778 286.102 98.7003C286.154 98.7195 286.207 98.7329 286.262 98.7403C286.328 98.7492 286.395 98.7525 286.462 98.7503H287.882L286.102 96.9103ZM283.682 97.5303C283.381 97.6408 283.062 97.6951 282.742 97.6903C282.555 97.6922 282.369 97.6617 282.192 97.6003C282.028 97.537 281.879 97.4419 281.752 97.3203C281.616 97.1998 281.51 97.0491 281.442 96.8803C281.367 96.6962 281.33 96.4991 281.332 96.3003C281.332 96.0137 281.404 95.7316 281.542 95.4803C281.714 95.2016 281.951 94.9683 282.232 94.8003L284.452 97.0803C284.222 97.274 283.96 97.4262 283.678 97.5303H283.682Z" fill="#005387"/>
<path d="M297.578 91.8898C297.452 91.5612 297.245 91.2692 296.978 91.0398C296.682 90.7833 296.334 90.5924 295.958 90.4798C295.481 90.3401 294.985 90.2727 294.488 90.2798H291.718V98.7498H293.298V95.7698H294.488C294.976 95.7771 295.461 95.7097 295.928 95.5698C296.305 95.4504 296.653 95.2528 296.948 94.9898C297.222 94.7502 297.435 94.4485 297.568 94.1098C297.703 93.7485 297.771 93.3655 297.768 92.9798C297.774 92.6078 297.709 92.2381 297.578 91.8898ZM296.088 93.6298C296.025 93.8178 295.915 93.9864 295.768 94.1198C295.62 94.2652 295.438 94.3716 295.238 94.4298C294.996 94.5057 294.742 94.5428 294.488 94.5398H293.298V91.4998H294.488C294.742 91.4938 294.995 91.5276 295.238 91.5998C295.435 91.6586 295.616 91.7611 295.768 91.8998C295.914 92.0257 296.025 92.1878 296.088 92.3698C296.163 92.5644 296.2 92.7714 296.198 92.9798C296.201 93.201 296.165 93.4211 296.092 93.6298H296.088Z" fill="#005387"/>
<path d="M304.912 90.2803V93.9203H300.942V90.2803H299.352V98.7503H300.942V95.0503H304.912V98.7503H306.502V90.2803H304.912Z" fill="#005387"/>
<path d="M314.022 90.2796C313.902 90.2755 313.785 90.3146 313.692 90.3896C313.614 90.4566 313.549 90.5381 313.502 90.6296L311.962 93.4596C311.872 93.6296 311.792 93.7796 311.722 93.9296C311.652 94.0796 311.602 94.2296 311.552 94.3796C311.502 94.2396 311.442 94.0896 311.372 93.9396C311.302 93.7896 311.222 93.6296 311.132 93.4596L309.582 90.6296C309.532 90.5339 309.464 90.4489 309.382 90.3796C309.288 90.3067 309.17 90.2711 309.052 90.2796H307.672L310.752 95.4596V98.7496H312.332V95.4596L315.412 90.2796H314.022Z" fill="#005387"/>
<path d="M321.502 95.2003C321.396 94.9673 321.247 94.7568 321.062 94.5803C320.873 94.4111 320.661 94.2696 320.432 94.1603C320.198 94.0459 319.958 93.9457 319.712 93.8603C319.472 93.7803 319.232 93.7003 318.992 93.6303C318.778 93.5613 318.571 93.4743 318.372 93.3703C318.197 93.2938 318.043 93.1773 317.922 93.0303C317.81 92.8922 317.753 92.7178 317.762 92.5403C317.756 92.3929 317.784 92.246 317.842 92.1103C317.892 91.9761 317.979 91.8584 318.092 91.7703C318.211 91.668 318.351 91.5929 318.502 91.5503C318.687 91.495 318.879 91.4681 319.072 91.4703C319.285 91.4664 319.498 91.4968 319.702 91.5603C319.863 91.6154 320.02 91.6823 320.172 91.7603C320.302 91.8403 320.412 91.9003 320.512 91.9603C320.587 92.0189 320.677 92.0537 320.772 92.0603C320.846 92.0619 320.92 92.041 320.982 92.0003C321.046 91.9539 321.098 91.892 321.132 91.8203L321.512 91.0803C321.202 90.7878 320.834 90.563 320.432 90.4203C319.99 90.2599 319.522 90.182 319.052 90.1903C318.649 90.1808 318.249 90.2487 317.872 90.3903C317.55 90.5173 317.255 90.7039 317.002 90.9403C316.771 91.1613 316.588 91.4266 316.462 91.7203C316.343 92.0054 316.282 92.3114 316.282 92.6203C316.274 92.9517 316.332 93.2814 316.452 93.5903C316.549 93.8394 316.7 94.0645 316.892 94.2503C317.074 94.4304 317.288 94.576 317.522 94.6803C317.753 94.7883 317.99 94.8818 318.232 94.9603C318.472 95.0403 318.712 95.1103 318.952 95.1803C319.165 95.243 319.372 95.3233 319.572 95.4203C319.744 95.5099 319.897 95.6322 320.022 95.7803C320.135 95.9368 320.192 96.1273 320.182 96.3203C320.194 96.4917 320.167 96.6635 320.103 96.8229C320.039 96.9822 319.939 97.125 319.812 97.2403C319.516 97.47 319.146 97.5838 318.772 97.5603C318.517 97.5661 318.263 97.5254 318.022 97.4403C317.83 97.3685 317.646 97.2781 317.472 97.1703C317.322 97.0703 317.182 96.9903 317.072 96.9103C316.98 96.8377 316.869 96.7957 316.752 96.7903C316.682 96.7866 316.612 96.804 316.552 96.8403C316.493 96.8761 316.442 96.9238 316.402 96.9803L315.942 97.7303C316.111 97.9044 316.298 98.0587 316.502 98.1903C316.711 98.3324 316.936 98.4499 317.172 98.5403C317.416 98.6438 317.671 98.7209 317.932 98.7703C318.192 98.8222 318.457 98.849 318.722 98.8503C319.149 98.86 319.574 98.7853 319.972 98.6303C320.317 98.5058 320.631 98.3079 320.892 98.0503C321.149 97.8042 321.347 97.5034 321.472 97.1703C321.605 96.8294 321.673 96.4664 321.672 96.1003C321.678 95.7918 321.62 95.4853 321.502 95.2003Z" fill="#005387"/>
<path d="M323.422 90.2803V98.7503H325.002V90.2803H323.422Z" fill="#005387"/>
<path d="M333.078 96.7604C333.03 96.7597 332.982 96.77 332.938 96.7904C332.896 96.8136 332.856 96.8403 332.818 96.8704C332.698 96.9828 332.567 97.0832 332.428 97.1704C332.294 97.249 332.153 97.3159 332.008 97.3704C331.851 97.4187 331.691 97.4555 331.528 97.4804C331.335 97.5015 331.142 97.5115 330.948 97.5104C330.601 97.5118 330.258 97.4438 329.938 97.3104C329.628 97.1746 329.349 96.9772 329.118 96.7304C328.878 96.4554 328.695 96.136 328.578 95.7904C328.432 95.3832 328.361 94.9529 328.368 94.5204C328.362 94.0945 328.433 93.671 328.578 93.2704C328.698 92.9218 328.889 92.6018 329.138 92.3304C329.379 92.0743 329.672 91.873 329.998 91.7404C330.618 91.5045 331.295 91.4661 331.938 91.6304C332.128 91.6901 332.312 91.7671 332.488 91.8604C332.628 91.9404 332.748 92.0204 332.848 92.0904C332.923 92.1562 333.018 92.195 333.118 92.2004C333.19 92.205 333.261 92.1837 333.318 92.1404C333.367 92.111 333.409 92.0698 333.438 92.0204L333.968 91.2904C333.618 90.9509 333.208 90.6796 332.758 90.4904C332.234 90.2803 331.673 90.1782 331.108 90.1904C330.503 90.1807 329.902 90.2894 329.338 90.5104C328.824 90.7079 328.357 91.0111 327.968 91.4004C327.579 91.7898 327.276 92.2565 327.078 92.7704C326.861 93.3281 326.752 93.922 326.758 94.5204C326.753 95.1128 326.851 95.7016 327.048 96.2604C327.223 96.767 327.499 97.2329 327.858 97.6304C328.223 98.014 328.662 98.3201 329.148 98.5304C329.688 98.7494 330.266 98.8582 330.848 98.8504C331.468 98.8622 332.084 98.7465 332.658 98.5104C333.151 98.2896 333.583 97.9535 333.918 97.5304L333.298 96.8604C333.272 96.8278 333.238 96.8018 333.2 96.7844C333.162 96.7671 333.12 96.7589 333.078 96.7604Z" fill="#005387"/>
<path d="M335.662 90.2803V98.7503H337.242V90.2803H335.662Z" fill="#005387"/>
<path d="M343.622 90.2803H342.002L338.682 98.7503H339.902C340.025 98.7567 340.146 98.7176 340.242 98.6403C340.325 98.5801 340.388 98.4965 340.422 98.4003L341.062 96.6703H344.572L345.202 98.4003C345.241 98.4996 345.307 98.5861 345.392 98.6503C345.491 98.7217 345.611 98.757 345.732 98.7503H346.952L343.622 90.2803ZM341.462 95.5503L342.492 92.7503C342.542 92.6203 342.592 92.4703 342.652 92.3003C342.712 92.1303 342.752 91.9403 342.812 91.7403C342.862 91.9403 342.922 92.1203 342.982 92.2903C343.042 92.4603 343.082 92.6103 343.132 92.7403L344.162 95.5503H341.462Z" fill="#005387"/>
<path d="M353.932 90.2802V95.4302C353.932 95.5402 353.932 95.6702 353.942 95.8002C353.952 95.9302 353.962 96.0602 353.972 96.2002L349.522 90.5302C349.482 90.4802 349.442 90.4302 349.412 90.4002C349.378 90.3703 349.341 90.3435 349.302 90.3202C349.26 90.3044 349.216 90.2943 349.172 90.2902C349.116 90.2809 349.059 90.2775 349.002 90.2802H348.172V98.7502H349.562V93.5502C349.562 93.4502 349.562 93.3402 349.552 93.2102C349.542 93.0802 349.542 92.9702 349.522 92.8402L353.952 98.4802C354.013 98.5717 354.095 98.6472 354.192 98.7002C354.292 98.7338 354.397 98.7507 354.502 98.7502H355.322V90.2802H353.932Z" fill="#005387"/>
<path d="M362.302 95.2005C362.193 94.967 362.04 94.7565 361.852 94.5805C361.669 94.4092 361.459 94.2675 361.232 94.1605C360.998 94.0478 360.757 93.9476 360.512 93.8605C360.262 93.7805 360.032 93.7005 359.792 93.6305C359.576 93.5596 359.365 93.4726 359.162 93.3705C358.992 93.2912 358.842 93.175 358.722 93.0305C358.607 92.8935 358.547 92.7191 358.552 92.5405C358.55 92.3923 358.581 92.2454 358.642 92.1105C358.689 91.9769 358.772 91.8591 358.882 91.7705C359.005 91.6681 359.148 91.5931 359.302 91.5505C359.487 91.4952 359.679 91.4682 359.872 91.4705C360.086 91.4667 360.298 91.4971 360.502 91.5605C360.66 91.6155 360.814 91.6824 360.962 91.7605C361.102 91.8405 361.212 91.9005 361.312 91.9605C361.386 92.0205 361.477 92.0555 361.572 92.0605C361.644 92.0636 361.714 92.0425 361.772 92.0005C361.842 91.9598 361.895 91.8961 361.922 91.8205L362.312 91.0805C361.999 90.7922 361.632 90.568 361.232 90.4205C360.79 90.2601 360.322 90.1821 359.852 90.1905C359.45 90.1801 359.049 90.248 358.672 90.3905C358.35 90.5174 358.055 90.704 357.802 90.9405C357.565 91.1561 357.381 91.4228 357.262 91.7205C357.143 92.0056 357.082 92.3115 357.082 92.6205C357.072 92.9512 357.126 93.2808 357.242 93.5905C357.343 93.8402 357.497 94.0652 357.692 94.2505C357.873 94.4281 358.083 94.5735 358.312 94.6805C358.547 94.7868 358.787 94.8803 359.032 94.9605C359.272 95.0405 359.512 95.1105 359.742 95.1805C359.959 95.2416 360.17 95.3219 360.372 95.4205C360.541 95.5101 360.691 95.6325 360.812 95.7805C360.929 95.9358 360.989 96.1264 360.982 96.3205C360.994 96.4918 360.967 96.6637 360.903 96.823C360.839 96.9824 360.739 97.1251 360.612 97.2405C360.316 97.4702 359.946 97.5839 359.572 97.5605C359.314 97.567 359.056 97.5264 358.812 97.4405C358.624 97.3687 358.443 97.2783 358.272 97.1705C358.122 97.0705 357.982 96.9905 357.872 96.9105C357.781 96.8378 357.669 96.7958 357.552 96.7905C357.482 96.7868 357.412 96.8042 357.352 96.8405C357.292 96.8787 357.238 96.926 357.192 96.9805L356.742 97.7305C356.911 97.9045 357.099 98.0589 357.302 98.1905C357.511 98.3326 357.736 98.45 357.972 98.5405C358.214 98.6426 358.465 98.7197 358.722 98.7705C358.986 98.8219 359.254 98.8486 359.522 98.8505C359.949 98.8602 360.374 98.7854 360.772 98.6305C361.116 98.5035 361.429 98.3059 361.692 98.0505C361.946 97.8017 362.144 97.5017 362.272 97.1705C362.402 96.829 362.467 96.4659 362.462 96.1005C362.472 95.7927 362.417 95.4862 362.302 95.2005Z" fill="#005387"/>
<path d="M104.857 67.96H99.7769V105.99H104.857V67.96Z" fill="#009DAC"/>
<path d="M150.66 99.7502L150.321 100.1C149.64 100.79 149 101.38 148.37 101.92C147.739 102.474 147.075 102.988 146.381 103.46C145.154 104.32 143.827 105.029 142.43 105.57C142.31 105.62 142.191 105.66 142.06 105.71C141.83 105.79 141.591 105.87 141.36 105.94C139.256 106.591 137.063 106.909 134.86 106.88H134.76C134.481 106.88 134.2 106.88 133.92 106.86C132.345 106.793 130.784 106.538 129.27 106.1C128.881 105.99 128.5 105.87 128.12 105.73C127.76 105.6 127.401 105.46 127.051 105.31C126.58 105.11 126.1 104.88 125.631 104.63C122.913 103.143 120.588 101.029 118.849 98.4637C117.11 95.8987 116.007 92.9563 115.631 89.8802C115.591 89.6202 115.551 89.3502 115.531 89.0702C115.463 88.3724 115.429 87.6715 115.431 86.9702V86.8602C115.43 85.5013 115.557 84.1452 115.811 82.8102C115.882 82.4702 115.951 82.1302 116.041 81.8002C117.047 77.5268 119.471 73.7202 122.918 71.0015C126.365 68.2827 130.631 66.8124 135.021 66.8302C135.152 66.8302 135.281 66.8302 135.411 66.8402C136.031 66.8402 136.652 66.8702 137.251 66.9302C137.331 66.9302 137.411 66.9402 137.482 66.9402C142.272 67.3679 146.748 69.5047 150.092 72.9602L150.442 73.2902L150.281 73.4702L147.021 76.9602L146.862 77.1302L146.511 76.8002C142.781 73.2602 139.331 71.7502 134.971 71.7502C126.902 71.7502 120.831 78.2002 120.831 86.7502V86.8602C120.799 89.0033 121.21 91.1299 122.038 93.107C122.865 95.0841 124.092 96.8691 125.641 98.3502C126.224 98.8843 126.849 99.3693 127.511 99.8002C129.216 100.902 131.147 101.606 133.161 101.86C133.491 101.9 133.831 101.93 134.171 101.95C134.442 101.96 134.701 101.97 134.971 101.97C139.171 101.97 142.331 100.68 145.891 97.5202C146.191 97.2502 146.501 96.9702 146.802 96.6802L147.141 96.3502L147.251 96.4402L147.501 96.6602L150.66 99.7502Z" fill="#009DAC"/>
<path d="M130.378 93.7417C130.036 93.5988 129.661 93.5549 129.296 93.6151C128.93 93.6752 128.589 93.8369 128.311 94.0817C128.917 93.9522 129.55 94.0675 130.072 94.4027C130.559 94.7404 130.98 95.1639 131.315 95.6527C131.666 96.1607 131.992 96.7017 132.307 97.2677C132.622 97.8337 132.922 98.4197 133.317 98.9927C133.284 97.6046 132.853 96.2553 132.074 95.1057C131.651 94.4979 131.062 94.0245 130.378 93.7417Z" fill="#C66B7F"/>
<path d="M138.8 96.6574C138.957 96.1505 139.157 95.6583 139.4 95.1864C139.632 94.7235 139.933 94.2978 140.291 93.9234C140.668 93.5326 141.112 93.2131 141.602 92.9804C141.005 92.9645 140.42 93.1494 139.94 93.5054C139.45 93.8589 139.052 94.3237 138.777 94.8614C138.51 95.3883 138.338 95.958 138.269 96.5444C138.242 96.8334 138.234 97.1244 138.235 97.4104C138.274 97.6994 138.289 97.9834 138.349 98.2654L138.8 96.6574Z" fill="#C66B7F"/>
<path d="M145.155 92.58C145.191 92.5493 145.23 92.5234 145.272 92.503C145.467 92.4047 145.652 92.2896 145.826 92.159C145.997 92.0333 146.158 91.8949 146.308 91.745C146.45 91.602 146.581 91.4482 146.699 91.285C146.812 91.1265 146.913 90.9593 146.999 90.785C147.171 90.451 147.29 90.0924 147.352 89.722C147.384 89.5406 147.402 89.3571 147.406 89.173C147.41 88.9893 147.401 88.8055 147.38 88.623C147.314 88.0709 147.131 87.5391 146.844 87.063C146.648 86.7375 146.407 86.4418 146.127 86.185C145.983 86.053 145.829 85.9317 145.667 85.822C145.499 85.7093 145.324 85.609 145.141 85.522C144.951 85.4308 144.754 85.3539 144.552 85.292C144.339 85.2268 144.122 85.177 143.902 85.143L143.802 85.128C143.207 85.0198 142.595 85.0523 142.014 85.2228C141.433 85.3934 140.901 85.6973 140.459 86.1102C140.016 86.5232 139.677 87.0339 139.467 87.6014C139.257 88.1689 139.183 88.7777 139.25 89.379C138.9 89.5879 138.627 89.9054 138.472 90.2834C138.318 90.6614 138.292 91.0793 138.396 91.4738C138.501 91.8683 138.731 92.2181 139.052 92.47C139.374 92.7219 139.768 92.8623 140.176 92.87C138.13 91.291 139.814 90.018 140.16 89.71C140.119 89.2513 140.188 88.7894 140.361 88.3626C140.534 87.9358 140.806 87.5563 141.155 87.2556C141.504 86.9549 141.919 86.7416 142.367 86.6333C142.815 86.525 143.282 86.5249 143.729 86.633C147.087 87.386 146.42 91.573 143.938 93.013C144.166 93.0774 144.389 93.1541 144.608 93.243C144.811 93.3275 145.002 93.4366 145.177 93.568C145.352 93.6963 145.505 93.8508 145.632 94.026C145.702 94.1163 145.765 94.2108 145.823 94.309C145.888 94.409 145.934 94.517 146.008 94.624C146.018 94.498 146.015 94.3713 145.998 94.246C145.978 94.1195 145.941 93.9962 145.889 93.879C145.829 93.7355 145.745 93.603 145.641 93.487C145.541 93.369 145.441 93.256 145.333 93.143C145.262 93.0708 145.195 92.994 145.133 92.913C145.103 92.8773 145.084 92.834 145.077 92.7879C145.07 92.7418 145.077 92.6947 145.095 92.652C145.11 92.6244 145.131 92.5999 145.155 92.58Z" fill="#C66B7F"/>
<path d="M134.871 89.6847C135.29 89.781 135.726 89.7637 136.136 89.6347C136.515 89.5187 136.876 89.3505 137.208 89.1347C137.533 88.9303 137.837 88.6941 138.115 88.4297C138.39 88.1731 138.646 87.8964 138.88 87.6017C139.775 86.4407 140.479 85.1444 140.965 83.7617C141.208 83.0933 141.418 82.4131 141.593 81.7237C141.787 81.026 141.904 80.309 141.941 79.5857C141.966 78.9514 141.847 78.3197 141.593 77.7377C141.417 77.3469 141.193 76.98 140.925 76.6457C140.713 76.3389 140.44 76.08 140.121 75.886C139.803 75.692 139.448 75.5672 139.078 75.5197C139.029 75.5197 138.664 75.5767 138.652 75.5627C135.366 71.8517 123.335 76.1537 126.975 88.8417C125.959 78.6347 133.175 73.8787 137.69 76.1487C136.75 76.3584 135.861 76.7547 135.076 77.3142C134.292 77.8736 133.628 78.5848 133.123 79.4057C134.557 77.9129 136.448 76.9398 138.496 76.6397C139.482 76.5917 140.296 77.5927 140.696 78.3847C140.848 78.6991 140.96 79.0309 141.031 79.3727C141.133 79.7231 141.127 80.0962 141.012 80.4427C140.892 80.7329 140.701 80.9883 140.457 81.1857C139.933 81.6055 139.347 81.9408 138.72 82.1797C137.647 82.5955 136.553 82.953 135.442 83.2507L135.028 83.3717C133.951 83.6729 132.894 84.0403 131.863 84.4717C130.77 84.8991 129.802 85.5948 129.049 86.4947C128.327 87.4882 127.729 88.5666 127.269 89.7057C126.744 90.8571 126.352 92.065 126.102 93.3057C125.943 93.8949 125.953 94.517 126.131 95.1007C126.31 95.6844 126.649 96.206 127.11 96.6057C127.048 96.5567 127.127 96.0327 127.132 95.9437C127.145 95.7104 127.164 95.477 127.188 95.2437C127.235 94.7917 127.301 94.3437 127.382 93.8967C127.567 92.8747 127.818 91.8657 128.097 90.8667C128.323 89.9204 128.612 88.9903 128.962 88.0827C129.214 87.4742 129.578 86.9185 130.035 86.4447C130.545 86.0058 131.136 85.6705 131.774 85.4577C132.69 85.1033 133.625 84.7992 134.574 84.5467C135.881 84.2152 137.166 83.8001 138.42 83.3037C139.448 82.8854 140.366 82.2352 141.102 81.4037C141.118 81.3857 141.11 81.3957 141.102 81.4037C140.935 82.1292 140.666 82.8272 140.302 83.4767C139.72 84.7307 138.997 85.914 138.146 87.0037C137.732 87.5215 137.247 87.9777 136.704 88.3587C136.228 88.7327 135.636 88.9264 135.031 88.9057C134.735 88.8309 134.46 88.6916 134.224 88.4978C133.988 88.304 133.798 88.0605 133.668 87.7847C133.323 87.1749 133.054 86.525 132.868 85.8497C132.852 86.3642 132.905 86.8785 133.027 87.3787C132.479 88.9263 132.375 90.5962 132.727 92.1997C133.17 93.3222 133.886 94.3163 134.811 95.0917C135.229 95.5019 135.609 95.9491 135.946 96.4277C136.281 96.9388 136.579 97.4735 136.837 98.0277C136.93 97.3688 136.846 96.6969 136.592 96.0817C136.333 95.466 135.956 94.9068 135.482 94.4357C135.065 94.0187 134.601 93.6567 134.171 93.2537C133.813 92.9187 133.277 92.5997 133.231 92.0627C133.167 91.0492 133.426 90.0414 133.971 89.1847C134.224 89.4251 134.533 89.5972 134.871 89.6847Z" fill="#C66B7F"/>
<path d="M179.99 67.6904H175.42L170.335 78.9294C167.692 84.7734 165.129 90.6614 162.402 96.4664C160.295 100.952 158.552 105.559 155.721 109.672C153.013 113.578 149.588 116.934 145.629 119.563C137.685 124.802 128.134 127.036 118.69 125.863C111.794 124.967 105.264 122.239 99.7803 117.963V123.813C99.7803 124.189 102.43 125.413 102.809 125.623C103.891 126.212 104.995 126.755 106.123 127.251C112.992 130.271 120.524 131.466 127.989 130.719C134.866 130.062 141.492 127.795 147.329 124.1C153.167 120.406 158.052 115.388 161.589 109.454C163.55 105.881 165.31 102.2 166.859 98.4304L167.869 96.1934H187.389L191.709 105.973H197.309L179.99 67.6904ZM169.96 91.4404L177.64 74.2804L185.29 91.4404H169.96Z" fill="#009DAC"/>
<path d="M123.778 47.75C130.442 47.7519 136.995 49.4515 142.82 52.6883C148.644 55.9251 153.548 60.5925 157.069 66.25L160.428 62.66C155.205 54.7886 147.585 48.8084 138.698 45.6048C129.811 42.4013 120.128 42.1447 111.084 44.873C102.04 47.6013 94.1145 53.1696 88.4814 60.7533C82.8484 68.3371 79.8072 77.5331 79.8081 86.98C79.8055 88.6275 79.8993 90.2736 80.089 91.91L61.3391 67.96H55.998V105.99H61.078V76.56L84.1181 105.99H84.129C84.138 106 84.1381 106.02 84.1491 106.03H89.508C89.4879 106.006 89.471 105.979 89.4581 105.95C86.1592 99.9787 84.4746 93.2504 84.5704 86.4291C84.6662 79.6078 86.5392 72.9294 90.0044 67.0531C93.4696 61.1768 98.4073 56.3057 104.33 52.9205C110.253 49.5354 116.956 47.7533 123.778 47.75Z" fill="#009DAC"/>
</g>
<defs>
<clipPath id="clip0_518_162">
<rect width="317.252" height="87.935" fill="white" transform="translate(56 43)"/>
</clipPath>
</defs>
</svg>
